<svg xmlns="http://www.w3.org/2000/svg" xmlns:xlink="http://www.w3.org/1999/xlink" width="500" zoomAndPan="magnify" viewBox="0 0 375 374.999991" height="500" preserveAspectRatio="xMidYMid meet" version="1.0"><defs><clipPath id="62146abd0b"><path d="M 6.847656 6.847656 L 368.347656 6.847656 L 368.347656 368.347656 L 6.847656 368.347656 Z M 6.847656 6.847656 " clip-rule="nonzero"/></clipPath><clipPath id="d9df6196b0"><path d="M 66 87 L 286 87 L 286 310.988281 L 66 310.988281 Z M 66 87 " clip-rule="nonzero"/></clipPath><clipPath id="15c7a215c5"><path d="M 280 126 L 360.34375 126 L 360.34375 270 L 280 270 Z M 280 126 " clip-rule="nonzero"/></clipPath><clipPath id="e79477ef23"><path d="M 63.34375 19.238281 L 290 19.238281 L 290 95 L 63.34375 95 Z M 63.34375 19.238281 " clip-rule="nonzero"/></clipPath><clipPath id="ff601af15d"><path d="M 76.304688 92.609375 L 271.628906 92.609375 L 271.628906 165.042969 L 76.304688 165.042969 Z M 76.304688 92.609375 " clip-rule="nonzero"/></clipPath><clipPath id="83542adbe0"><path d="M 0.304688 0.609375 L 195.628906 0.609375 L 195.628906 73.042969 L 0.304688 73.042969 Z M 0.304688 0.609375 " clip-rule="nonzero"/></clipPath><clipPath id="38ff955a45"><rect x="0" width="196" y="0" height="74"/></clipPath><clipPath id="9f6e0e812a"><path d="M 63.34375 59.804688 L 300.40625 59.804688 L 300.40625 93.359375 L 63.34375 93.359375 Z M 63.34375 59.804688 " clip-rule="nonzero"/></clipPath><clipPath id="a39fbf0944"><path d="M 0.34375 0.804688 L 237.40625 0.804688 L 237.40625 34.359375 L 0.34375 34.359375 Z M 0.34375 0.804688 " clip-rule="nonzero"/></clipPath><clipPath id="97ecb9da0b"><rect x="0" width="238" y="0" height="35"/></clipPath><clipPath id="8abf3d2066"><path d="M 92.609375 38.25 L 280.191406 38.25 L 280.191406 60.554688 L 92.609375 60.554688 Z M 92.609375 38.25 " clip-rule="nonzero"/></clipPath><clipPath id="9680879805"><path d="M 0.609375 0.25 L 188.191406 0.25 L 188.191406 22.554688 L 0.609375 22.554688 Z M 0.609375 0.25 " clip-rule="nonzero"/></clipPath><clipPath id="aecd319e63"><rect x="0" width="189" y="0" height="23"/></clipPath><clipPath id="21e32dbdf2"><path d="M 88.125 165.042969 L 132.800781 165.042969 L 132.800781 237.476562 L 88.125 237.476562 Z M 88.125 165.042969 " clip-rule="nonzero"/></clipPath><clipPath id="419e147057"><path d="M 0.125 0.0429688 L 44.800781 0.0429688 L 44.800781 72.476562 L 0.125 72.476562 Z M 0.125 0.0429688 " clip-rule="nonzero"/></clipPath><clipPath id="0ebeb17067"><rect x="0" width="45" y="0" height="73"/></clipPath><clipPath id="93200cbf38"><path d="M 76.304688 48.652344 L 263.886719 48.652344 L 263.886719 70.957031 L 76.304688 70.957031 Z M 76.304688 48.652344 " clip-rule="nonzero"/></clipPath><clipPath id="12d6be4dcd"><path d="M 0.304688 0.652344 L 187.886719 0.652344 L 187.886719 22.957031 L 0.304688 22.957031 Z M 0.304688 0.652344 " clip-rule="nonzero"/></clipPath><clipPath id="37148dfebc"><rect x="0" width="188" y="0" height="23"/></clipPath><clipPath id="2596fa9366"><path d="M 105 29.609375 L 263.886719 29.609375 L 263.886719 39 L 105 39 Z M 105 29.609375 " clip-rule="nonzero"/></clipPath><clipPath id="2d5ebcebff"><path d="M 0 0.609375 L 158.886719 0.609375 L 158.886719 10 L 0 10 Z M 0 0.609375 " clip-rule="nonzero"/></clipPath><clipPath id="707435b44d"><rect x="0" width="159" y="0" height="10"/></clipPath><clipPath id="3d94b6e3bf"><path d="M 148.523438 18.457031 L 224.273438 18.457031 L 224.273438 40.761719 L 148.523438 40.761719 Z M 148.523438 18.457031 " clip-rule="nonzero"/></clipPath><clipPath id="183087c303"><path d="M 0.523438 0.457031 L 76.273438 0.457031 L 76.273438 22.761719 L 0.523438 22.761719 Z M 0.523438 0.457031 " clip-rule="nonzero"/></clipPath><clipPath id="68821a3211"><rect x="0" width="77" y="0" height="23"/></clipPath></defs><g clip-path="url(#62146abd0b)"><path fill="#e2a9f1" d="M 368.148438 187.5 C 368.148438 287.257812 287.265625 368.148438 187.5 368.148438 C 87.730469 368.148438 6.847656 287.257812 6.847656 187.5 C 6.847656 87.730469 87.730469 6.847656 187.5 6.847656 C 287.265625 6.847656 368.148438 87.730469 368.148438 187.5 Z M 368.148438 187.5 " fill-opacity="1" fill-rule="nonzero"/></g><path fill="#e2a9f1" d="M 103.476562 235.03125 C 103.476562 222.566406 104.019531 210.640625 105.101562 199 C 95.617188 208.753906 85.332031 218.5 74.21875 227.171875 C 72.324219 228.535156 70.15625 229.347656 67.988281 229.347656 C 64.734375 229.347656 61.484375 227.722656 59.316406 224.472656 C 57.972656 222.5625 57.429688 220.40625 57.429688 218.511719 C 57.429688 215.257812 59.054688 212.007812 61.765625 210.109375 C 88.851562 191.421875 121.632812 156.746094 134.636719 130.734375 C 135.449219 129.378906 135.722656 128.296875 135.722656 127.210938 C 135.722656 125.3125 134.097656 124.230469 130.84375 124.230469 L 72.0625 124.230469 C 67.183594 124.230469 64.476562 120.4375 64.476562 115.027344 C 64.476562 109.609375 67.183594 105.542969 72.0625 105.542969 L 103.214844 105.542969 L 103.214844 67.074219 C 103.214844 62.195312 107.550781 59.488281 113.511719 59.488281 C 119.746094 59.488281 124.078125 62.195312 124.078125 67.074219 L 124.078125 105.542969 L 141.683594 105.542969 C 152.25 105.542969 159.015625 111.503906 159.015625 120.707031 C 159.015625 124.230469 157.933594 128.296875 156.035156 132.628906 C 149.261719 145.910156 138.703125 161.34375 127.863281 174.621094 C 140.859375 187.898438 152.785156 197.113281 162.265625 203.335938 C 165.789062 205.503906 167.414062 208.210938 167.414062 211.472656 C 167.414062 213.632812 166.601562 215.527344 165.25 217.695312 C 163.351562 220.675781 160.371094 222.042969 157.660156 222.042969 C 155.765625 222.042969 153.597656 221.492188 151.96875 220.144531 C 142.214844 212.828125 132.46875 203.34375 122.171875 192.246094 C 123.257812 205.792969 123.800781 216.625 123.800781 229.628906 L 123.800781 303.855469 C 123.800781 308.726562 119.734375 311.445312 113.5 311.445312 C 107.539062 311.445312 103.476562 308.464844 103.476562 303.855469 Z M 219.152344 181.125 C 218.078125 244.253906 199.371094 283.253906 155.765625 307.640625 C 153.597656 308.996094 151.429688 309.808594 149.53125 309.808594 C 146.28125 309.808594 143.027344 308.183594 140.859375 304.660156 C 139.503906 302.761719 138.964844 300.59375 138.964844 298.425781 C 138.964844 295.175781 140.589844 292.464844 143.839844 290.308594 C 182.582031 268.640625 198.296875 238.832031 199.371094 181.136719 L 191.25 181.136719 C 174.992188 181.136719 167.949219 174.902344 167.949219 159.738281 L 167.949219 95.246094 C 167.949219 79.800781 174.992188 73.296875 191.25 73.296875 L 276.859375 73.296875 C 292.847656 73.296875 300.152344 79.800781 300.152344 95.246094 L 300.152344 159.71875 C 300.152344 174.894531 292.847656 181.113281 276.859375 181.113281 L 261.964844 181.113281 L 261.964844 279.449219 C 261.964844 285.683594 264.125 286.765625 277.140625 286.765625 C 288.511719 286.765625 292.304688 284.878906 294.203125 278.917969 C 295.828125 272.402344 296.914062 259.679688 297.183594 248.847656 C 297.183594 243.972656 300.707031 240.992188 305.84375 240.992188 L 306.65625 240.992188 C 312.617188 241.261719 315.871094 243.972656 315.871094 249.121094 L 315.871094 249.671875 C 315.597656 266.191406 313.703125 281.90625 309.378906 291.933594 C 307.75 295.726562 305.03125 298.707031 301.519531 300.875 C 296.371094 303.855469 287.699219 305.742188 276.058594 305.742188 L 271.449219 305.742188 C 246.800781 305.484375 241.925781 299.78125 241.925781 285.972656 L 241.925781 181.125 Z M 271.710938 162.429688 C 276.871094 162.429688 279.851562 160.53125 279.851562 154.570312 L 279.851562 100.394531 C 279.851562 94.164062 276.871094 92.816406 271.710938 92.816406 L 196.410156 92.816406 C 190.992188 92.816406 188.28125 94.171875 188.28125 100.394531 L 188.28125 154.578125 C 188.28125 160.542969 190.992188 162.4375 196.410156 162.4375 L 271.710938 162.4375 Z M 271.710938 162.429688 " fill-opacity="1" fill-rule="nonzero"/><g clip-path="url(#d9df6196b0)"><path fill="#ffffff" d="M 285.851562 291.925781 C 285.851562 302.371094 277.382812 310.835938 266.9375 310.835938 L 85.027344 310.835938 C 74.585938 310.835938 66.117188 302.371094 66.117188 291.925781 L 66.117188 106.039062 C 66.117188 95.597656 74.585938 87.128906 85.027344 87.128906 L 266.9375 87.128906 C 277.382812 87.128906 285.851562 95.597656 285.851562 106.039062 Z M 285.851562 291.925781 " fill-opacity="1" fill-rule="nonzero"/></g><g clip-path="url(#15c7a215c5)"><path fill="#ffffff" d="M 312.464844 269.910156 L 280.375 269.910156 L 280.375 240.796875 L 312.464844 240.796875 C 322.839844 240.796875 331.28125 232.359375 331.28125 221.984375 L 331.28125 174.066406 C 331.28125 163.6875 322.839844 155.25 312.464844 155.25 L 284.226562 155.25 L 284.226562 126.136719 L 312.464844 126.136719 C 338.890625 126.136719 360.394531 147.636719 360.394531 174.066406 L 360.394531 221.984375 C 360.394531 248.40625 338.890625 269.910156 312.464844 269.910156 Z M 312.464844 269.910156 " fill-opacity="1" fill-rule="nonzero"/></g><path fill="#fbc520" d="M 87.539062 92.148438 L 265.316406 92.148438 L 265.316406 289.25 L 87.539062 289.25 Z M 87.539062 92.148438 " fill-opacity="1" fill-rule="nonzero"/><g clip-path="url(#e79477ef23)"><path fill="#ffffff" d="M 257.480469 51.582031 C 257.386719 51.582031 257.292969 51.582031 257.199219 51.582031 C 250.359375 39.011719 236.304688 30.816406 220.945312 30.816406 C 216.332031 30.816406 211.832031 31.535156 207.515625 32.953125 C 199.835938 24.292969 188.453125 19.238281 176.210938 19.238281 C 163.757812 19.238281 152.269531 24.425781 144.59375 33.304688 C 139.976562 31.667969 135.039062 30.816406 130.066406 30.816406 C 112.867188 30.816406 97.785156 40.777344 91.972656 55.5 C 75.984375 57.023438 63.46875 69.589844 63.46875 84.832031 C 63.46875 84.835938 63.46875 84.835938 63.46875 84.835938 C 63.46875 90.03125 67.679688 94.242188 72.875 94.242188 L 275.28125 94.242188 C 288.84375 94.242188 289.300781 85.042969 289.300781 81.117188 C 289.300781 64.828125 275.027344 51.582031 257.480469 51.582031 Z M 257.480469 51.582031 " fill-opacity="1" fill-rule="nonzero"/></g><path fill="#fbc520" d="M 119.675781 94.714844 C 119.675781 101.914062 113.835938 107.75 106.636719 107.75 C 99.4375 107.75 93.605469 101.914062 93.605469 94.714844 C 93.605469 87.519531 99.4375 81.679688 106.636719 81.679688 C 113.835938 81.679688 119.675781 87.519531 119.675781 94.714844 Z M 119.675781 94.714844 " fill-opacity="1" fill-rule="nonzero"/><path fill="#ffffff" d="M 106.636719 109.375 C 98.554688 109.375 91.980469 102.796875 91.980469 94.714844 C 91.980469 86.632812 98.554688 80.054688 106.636719 80.054688 C 114.722656 80.054688 121.300781 86.632812 121.300781 94.714844 C 121.300781 102.796875 114.71875 109.375 106.636719 109.375 Z M 106.636719 83.304688 C 100.34375 83.304688 95.230469 88.421875 95.230469 94.714844 C 95.230469 101.007812 100.34375 106.125 106.636719 106.125 C 112.925781 106.125 118.042969 101.007812 118.042969 94.714844 C 118.042969 88.421875 112.925781 83.304688 106.636719 83.304688 Z M 106.636719 83.304688 " fill-opacity="1" fill-rule="nonzero"/><path fill="#fbc520" d="M 137.097656 94.714844 C 137.097656 99.527344 133.195312 103.429688 128.382812 103.429688 C 123.570312 103.429688 119.675781 99.527344 119.675781 94.714844 C 119.675781 89.902344 123.570312 86 128.382812 86 C 133.195312 86 137.097656 89.902344 137.097656 94.714844 Z M 137.097656 94.714844 " fill-opacity="1" fill-rule="nonzero"/><path fill="#ffffff" d="M 128.382812 104.515625 C 122.976562 104.515625 118.582031 100.117188 118.582031 94.714844 C 118.582031 89.308594 122.976562 84.914062 128.382812 84.914062 C 133.789062 84.914062 138.183594 89.308594 138.183594 94.714844 C 138.183594 100.117188 133.789062 104.515625 128.382812 104.515625 Z M 128.382812 87.089844 C 124.179688 87.089844 120.753906 90.507812 120.753906 94.714844 C 120.753906 98.921875 124.183594 102.34375 128.382812 102.34375 C 132.589844 102.34375 136.011719 98.921875 136.011719 94.714844 C 136.011719 90.507812 132.589844 87.089844 128.382812 87.089844 Z M 128.382812 87.089844 " fill-opacity="1" fill-rule="nonzero"/><path fill="#fbc520" d="M 200.515625 94.714844 C 200.515625 102.671875 194.066406 109.121094 186.109375 109.121094 C 178.148438 109.121094 171.707031 102.671875 171.707031 94.714844 C 171.707031 86.761719 178.148438 80.3125 186.109375 80.3125 C 194.066406 80.3125 200.515625 86.761719 200.515625 94.714844 Z M 200.515625 94.714844 " fill-opacity="1" fill-rule="nonzero"/><path fill="#ffffff" d="M 186.109375 110.917969 C 177.175781 110.917969 169.902344 103.644531 169.902344 94.714844 C 169.902344 85.78125 177.175781 78.511719 186.109375 78.511719 C 195.039062 78.511719 202.3125 85.78125 202.3125 94.714844 C 202.3125 103.644531 195.039062 110.917969 186.109375 110.917969 Z M 186.109375 82.109375 C 179.160156 82.109375 173.496094 87.765625 173.496094 94.714844 C 173.496094 101.667969 179.160156 107.320312 186.109375 107.320312 C 193.0625 107.320312 198.714844 101.667969 198.714844 94.714844 C 198.714844 87.765625 193.0625 82.109375 186.109375 82.109375 Z M 186.109375 82.109375 " fill-opacity="1" fill-rule="nonzero"/><path fill="#fbc520" d="M 216.089844 99.9375 C 216.089844 104.238281 212.597656 107.726562 208.300781 107.726562 C 204 107.726562 200.515625 104.238281 200.515625 99.9375 C 200.515625 95.636719 204 92.148438 208.300781 92.148438 C 212.597656 92.148438 216.089844 95.636719 216.089844 99.9375 Z M 216.089844 99.9375 " fill-opacity="1" fill-rule="nonzero"/><path fill="#ffffff" d="M 208.304688 108.691406 C 203.472656 108.691406 199.539062 104.765625 199.539062 99.9375 C 199.539062 95.105469 203.472656 91.175781 208.304688 91.175781 C 213.125 91.175781 217.058594 95.105469 217.058594 99.9375 C 217.058594 104.765625 213.125 108.691406 208.304688 108.691406 Z M 208.304688 93.125 C 204.539062 93.125 201.484375 96.179688 201.484375 99.9375 C 201.484375 103.695312 204.539062 106.75 208.304688 106.75 C 212.058594 106.75 215.117188 103.695312 215.117188 99.9375 C 215.117188 96.179688 212.058594 93.125 208.304688 93.125 Z M 208.304688 93.125 " fill-opacity="1" fill-rule="nonzero"/><path fill="#fbc520" d="M 171.707031 94.714844 C 171.707031 99.015625 168.214844 102.503906 163.914062 102.503906 C 159.617188 102.503906 156.128906 99.015625 156.128906 94.714844 C 156.128906 90.414062 159.617188 86.925781 163.914062 86.925781 C 168.214844 86.925781 171.707031 90.414062 171.707031 94.714844 Z M 171.707031 94.714844 " fill-opacity="1" fill-rule="nonzero"/><path fill="#ffffff" d="M 163.914062 103.476562 C 159.089844 103.476562 155.15625 99.542969 155.15625 94.714844 C 155.15625 89.882812 159.089844 85.953125 163.914062 85.953125 C 168.742188 85.953125 172.675781 89.882812 172.675781 94.714844 C 172.675781 99.542969 168.742188 103.476562 163.914062 103.476562 Z M 163.914062 87.902344 C 160.15625 87.902344 157.097656 90.957031 157.097656 94.714844 C 157.097656 98.476562 160.15625 101.527344 163.914062 101.527344 C 167.675781 101.527344 170.730469 98.476562 170.730469 94.714844 C 170.730469 90.957031 167.675781 87.902344 163.914062 87.902344 Z M 163.914062 87.902344 " fill-opacity="1" fill-rule="nonzero"/><path fill="#fbc520" d="M 156.128906 94.714844 C 156.128906 97.824219 153.613281 100.339844 150.503906 100.339844 C 147.398438 100.339844 144.878906 97.824219 144.878906 94.714844 C 144.878906 91.609375 147.398438 89.089844 150.503906 89.089844 C 153.613281 89.09375 156.128906 91.609375 156.128906 94.714844 Z M 156.128906 94.714844 " fill-opacity="1" fill-rule="nonzero"/><path fill="#ffffff" d="M 150.503906 101.039062 C 147.015625 101.039062 144.175781 98.207031 144.175781 94.714844 C 144.175781 91.230469 147.015625 88.386719 150.503906 88.386719 C 153.996094 88.386719 156.828125 91.230469 156.828125 94.714844 C 156.828125 98.207031 153.996094 101.039062 150.503906 101.039062 Z M 150.503906 89.789062 C 147.789062 89.789062 145.578125 92.003906 145.578125 94.714844 C 145.578125 97.433594 147.789062 99.636719 150.503906 99.636719 C 153.21875 99.636719 155.425781 97.433594 155.425781 94.714844 C 155.425781 92.003906 153.21875 89.789062 150.503906 89.789062 Z M 150.503906 89.789062 " fill-opacity="1" fill-rule="nonzero"/><path fill="#fbc520" d="M 144.878906 94.714844 C 144.878906 96.980469 143.042969 98.8125 140.785156 98.8125 C 138.523438 98.8125 136.6875 96.980469 136.6875 94.714844 C 136.6875 92.453125 138.523438 90.617188 140.785156 90.617188 C 143.042969 90.617188 144.878906 92.453125 144.878906 94.714844 Z M 144.878906 94.714844 " fill-opacity="1" fill-rule="nonzero"/><path fill="#ffffff" d="M 140.785156 99.320312 C 138.242188 99.320312 136.175781 97.257812 136.175781 94.714844 C 136.175781 92.171875 138.242188 90.105469 140.785156 90.105469 C 143.324219 90.105469 145.390625 92.171875 145.390625 94.714844 C 145.390625 97.257812 143.324219 99.320312 140.785156 99.320312 Z M 140.785156 91.128906 C 138.808594 91.128906 137.199219 92.738281 137.199219 94.714844 C 137.199219 96.691406 138.808594 98.300781 140.785156 98.300781 C 142.761719 98.300781 144.363281 96.691406 144.363281 94.714844 C 144.363281 92.738281 142.761719 91.128906 140.785156 91.128906 Z M 140.785156 91.128906 " fill-opacity="1" fill-rule="nonzero"/><path fill="#fbc520" d="M 93.164062 94.714844 C 93.164062 97.824219 90.640625 100.339844 87.539062 100.339844 C 84.433594 100.339844 81.914062 97.824219 81.914062 94.714844 C 81.914062 91.609375 84.433594 89.089844 87.539062 89.089844 C 90.640625 89.089844 93.164062 91.609375 93.164062 94.714844 Z M 93.164062 94.714844 " fill-opacity="1" fill-rule="nonzero"/><path fill="#ffffff" d="M 87.539062 101.039062 C 84.050781 101.039062 81.210938 98.207031 81.210938 94.714844 C 81.210938 91.230469 84.050781 88.386719 87.539062 88.386719 C 91.027344 88.386719 93.863281 91.230469 93.863281 94.714844 C 93.863281 98.207031 91.027344 101.039062 87.539062 101.039062 Z M 87.539062 89.789062 C 84.828125 89.789062 82.621094 92.003906 82.621094 94.714844 C 82.621094 97.433594 84.828125 99.636719 87.539062 99.636719 C 90.253906 99.636719 92.460938 97.433594 92.460938 94.714844 C 92.460938 92.003906 90.253906 89.789062 87.539062 89.789062 Z M 87.539062 89.789062 " fill-opacity="1" fill-rule="nonzero"/><path fill="#fbc520" d="M 251.125 94.714844 C 251.125 97.226562 249.089844 99.257812 246.578125 99.257812 C 244.066406 99.257812 242.035156 97.226562 242.035156 94.714844 C 242.035156 92.207031 244.066406 90.171875 246.578125 90.171875 C 249.089844 90.171875 251.125 92.207031 251.125 94.714844 Z M 251.125 94.714844 " fill-opacity="1" fill-rule="nonzero"/><path fill="#ffffff" d="M 246.578125 99.824219 C 243.761719 99.824219 241.464844 97.53125 241.464844 94.714844 C 241.464844 91.898438 243.761719 89.605469 246.578125 89.605469 C 249.394531 89.605469 251.6875 91.898438 251.6875 94.714844 C 251.691406 97.53125 249.394531 99.824219 246.578125 99.824219 Z M 246.578125 90.738281 C 244.382812 90.738281 242.597656 92.519531 242.597656 94.714844 C 242.597656 96.910156 244.382812 98.695312 246.578125 98.695312 C 248.773438 98.695312 250.554688 96.910156 250.554688 94.714844 C 250.554688 92.519531 248.773438 90.738281 246.578125 90.738281 Z M 246.578125 90.738281 " fill-opacity="1" fill-rule="nonzero"/><path fill="#fbc520" d="M 270.152344 94.714844 C 270.152344 99.726562 266.089844 103.789062 261.078125 103.789062 C 256.066406 103.789062 252.007812 99.726562 252.007812 94.714844 C 252.007812 89.707031 256.066406 85.648438 261.078125 85.648438 C 266.089844 85.648438 270.152344 89.707031 270.152344 94.714844 Z M 270.152344 94.714844 " fill-opacity="1" fill-rule="nonzero"/><path fill="#ffffff" d="M 261.078125 104.917969 C 255.449219 104.917969 250.875 100.34375 250.875 94.714844 C 250.875 89.085938 255.449219 84.515625 261.078125 84.515625 C 266.707031 84.515625 271.285156 89.085938 271.285156 94.714844 C 271.285156 100.34375 266.707031 104.917969 261.078125 104.917969 Z M 261.078125 86.773438 C 256.703125 86.773438 253.136719 90.335938 253.136719 94.714844 C 253.136719 99.09375 256.703125 102.65625 261.078125 102.65625 C 265.457031 102.65625 269.019531 99.09375 269.019531 94.714844 C 269.019531 90.335938 265.457031 86.773438 261.078125 86.773438 Z M 261.078125 86.773438 " fill-opacity="1" fill-rule="nonzero"/><path fill="#fbc520" d="M 240.757812 94.246094 C 240.757812 101.054688 235.234375 106.574219 228.421875 106.574219 C 221.613281 106.574219 216.089844 101.054688 216.089844 94.246094 C 216.089844 87.429688 221.613281 81.90625 228.421875 81.90625 C 235.234375 81.90625 240.757812 87.433594 240.757812 94.246094 Z M 240.757812 94.246094 " fill-opacity="1" fill-rule="nonzero"/><path fill="#ffffff" d="M 228.421875 108.117188 C 220.773438 108.117188 214.554688 101.890625 214.554688 94.246094 C 214.554688 86.59375 220.773438 80.371094 228.421875 80.371094 C 236.074219 80.371094 242.300781 86.59375 242.300781 94.246094 C 242.300781 101.890625 236.074219 108.117188 228.421875 108.117188 Z M 228.421875 83.445312 C 222.46875 83.445312 217.628906 88.289062 217.628906 94.246094 C 217.628906 100.195312 222.46875 105.039062 228.421875 105.039062 C 234.375 105.039062 239.21875 100.195312 239.21875 94.246094 C 239.21875 88.289062 234.375 83.445312 228.421875 83.445312 Z M 228.421875 83.445312 " fill-opacity="1" fill-rule="nonzero"/><path fill="#ffffff" d="M 240.757812 137.257812 C 240.757812 144.070312 235.234375 149.59375 228.421875 149.59375 C 221.613281 149.59375 216.089844 144.070312 216.089844 137.257812 C 216.089844 130.449219 221.613281 124.921875 228.421875 124.921875 C 235.234375 124.921875 240.757812 130.449219 240.757812 137.257812 Z M 240.757812 137.257812 " fill-opacity="1" fill-rule="nonzero"/><path fill="#ffffff" d="M 126.3125 161.929688 C 126.3125 162.550781 126.25 163.167969 126.128906 163.78125 C 126.007812 164.390625 125.828125 164.984375 125.589844 165.558594 C 125.351562 166.136719 125.058594 166.683594 124.714844 167.199219 C 124.367188 167.71875 123.972656 168.199219 123.53125 168.640625 C 123.09375 169.078125 122.613281 169.472656 122.09375 169.820312 C 121.578125 170.164062 121.03125 170.457031 120.453125 170.695312 C 119.878906 170.933594 119.285156 171.113281 118.671875 171.238281 C 118.0625 171.359375 117.445312 171.417969 116.824219 171.417969 C 116.199219 171.417969 115.582031 171.359375 114.972656 171.238281 C 114.359375 171.113281 113.765625 170.933594 113.191406 170.695312 C 112.613281 170.457031 112.066406 170.164062 111.550781 169.820312 C 111.03125 169.472656 110.550781 169.078125 110.113281 168.640625 C 109.671875 168.199219 109.277344 167.71875 108.929688 167.199219 C 108.585938 166.683594 108.292969 166.136719 108.054688 165.558594 C 107.816406 164.984375 107.636719 164.390625 107.515625 163.78125 C 107.394531 163.167969 107.332031 162.550781 107.332031 161.929688 C 107.332031 161.304688 107.394531 160.6875 107.515625 160.078125 C 107.636719 159.464844 107.816406 158.871094 108.054688 158.296875 C 108.292969 157.722656 108.585938 157.175781 108.929688 156.65625 C 109.277344 156.136719 109.671875 155.660156 110.113281 155.21875 C 110.550781 154.777344 111.03125 154.382812 111.550781 154.039062 C 112.066406 153.691406 112.613281 153.398438 113.191406 153.160156 C 113.765625 152.921875 114.359375 152.742188 114.972656 152.621094 C 115.582031 152.5 116.199219 152.4375 116.824219 152.4375 C 117.445312 152.4375 118.0625 152.5 118.671875 152.621094 C 119.285156 152.742188 119.878906 152.921875 120.453125 153.160156 C 121.03125 153.398438 121.578125 153.691406 122.09375 154.039062 C 122.613281 154.382812 123.09375 154.777344 123.53125 155.21875 C 123.972656 155.660156 124.367188 156.136719 124.714844 156.65625 C 125.058594 157.175781 125.351562 157.722656 125.589844 158.296875 C 125.828125 158.871094 126.007812 159.464844 126.128906 160.078125 C 126.25 160.6875 126.3125 161.304688 126.3125 161.929688 Z M 126.3125 161.929688 " fill-opacity="1" fill-rule="nonzero"/><path fill="#ffffff" d="M 172.316406 134.59375 C 172.316406 142.878906 165.597656 149.59375 157.316406 149.59375 C 149.03125 149.59375 142.3125 142.878906 142.3125 134.59375 C 142.3125 126.304688 149.03125 119.59375 157.316406 119.59375 C 165.597656 119.59375 172.316406 126.304688 172.316406 134.59375 Z M 172.316406 134.59375 " fill-opacity="1" fill-rule="nonzero"/><path fill="#ffffff" d="M 203.929688 180.894531 C 203.929688 187.46875 198.597656 192.800781 192.023438 192.800781 C 185.449219 192.800781 180.117188 187.46875 180.117188 180.894531 C 180.117188 174.324219 185.449219 168.988281 192.023438 168.988281 C 198.597656 168.988281 203.929688 174.324219 203.929688 180.894531 Z M 203.929688 180.894531 " fill-opacity="1" fill-rule="nonzero"/><path fill="#ffffff" d="M 158.722656 208.679688 C 158.722656 212.496094 155.625 215.597656 151.800781 215.597656 C 147.980469 215.597656 144.878906 212.5 144.878906 208.679688 C 144.878906 204.859375 147.980469 201.753906 151.800781 201.753906 C 155.625 201.753906 158.722656 204.859375 158.722656 208.679688 Z M 158.722656 208.679688 " fill-opacity="1" fill-rule="nonzero"/><path fill="#ffffff" d="M 242.035156 200.390625 C 242.035156 203.542969 239.484375 206.089844 236.335938 206.089844 C 233.195312 206.089844 230.644531 203.542969 230.644531 200.390625 C 230.644531 197.25 233.199219 194.699219 236.335938 194.699219 C 239.484375 194.699219 242.035156 197.25 242.035156 200.390625 Z M 242.035156 200.390625 " fill-opacity="1" fill-rule="nonzero"/><path fill="#ffffff" d="M 208.199219 230.015625 C 208.199219 232.375 206.285156 234.28125 203.929688 234.28125 C 201.566406 234.28125 199.65625 232.375 199.65625 230.015625 C 199.65625 227.65625 201.566406 225.746094 203.929688 225.746094 C 206.285156 225.746094 208.199219 227.65625 208.199219 230.015625 Z M 208.199219 230.015625 " fill-opacity="1" fill-rule="nonzero"/><path fill="#ffffff" d="M 121.09375 266.871094 C 121.09375 269.230469 119.183594 271.144531 116.824219 271.144531 C 114.460938 271.144531 112.554688 269.230469 112.554688 266.871094 C 112.554688 264.511719 114.460938 262.605469 116.824219 262.605469 C 119.183594 262.605469 121.09375 264.511719 121.09375 266.871094 Z M 121.09375 266.871094 " fill-opacity="1" fill-rule="nonzero"/><path fill="#ffffff" d="M 235.785156 254.472656 C 235.785156 256.179688 234.398438 257.570312 232.695312 257.570312 C 230.984375 257.570312 229.59375 256.179688 229.59375 254.472656 C 229.59375 252.765625 230.984375 251.378906 232.695312 251.378906 C 234.398438 251.378906 235.785156 252.765625 235.785156 254.472656 Z M 235.785156 254.472656 " fill-opacity="1" fill-rule="nonzero"/><g clip-path="url(#ff601af15d)"><g transform="matrix(1, 0, 0, 1, 76, 92)"><g clip-path="url(#38ff955a45)"><g clip-path="url(#83542adbe0)"><path fill="#ffffff" d="M 0.304688 0.609375 L 195.535156 0.609375 L 195.535156 73.042969 L 0.304688 73.042969 Z M 0.304688 0.609375 " fill-opacity="1" fill-rule="nonzero"/></g></g></g></g><g clip-path="url(#9f6e0e812a)"><g transform="matrix(1, 0, 0, 1, 63, 59)"><g clip-path="url(#97ecb9da0b)"><g clip-path="url(#a39fbf0944)"><path fill="#e2a9f1" d="M 0.34375 0.804688 L 237.453125 0.804688 L 237.453125 34.359375 L 0.34375 34.359375 Z M 0.34375 0.804688 " fill-opacity="1" fill-rule="nonzero"/></g></g></g></g><g clip-path="url(#8abf3d2066)"><g transform="matrix(1, 0, 0, 1, 92, 38)"><g clip-path="url(#aecd319e63)"><g clip-path="url(#9680879805)"><path fill="#e2a9f1" d="M 0.609375 0.25 L 188.191406 0.25 L 188.191406 22.554688 L 0.609375 22.554688 Z M 0.609375 0.25 " fill-opacity="1" fill-rule="nonzero"/></g></g></g></g><g clip-path="url(#21e32dbdf2)"><g transform="matrix(1, 0, 0, 1, 88, 165)"><g clip-path="url(#0ebeb17067)"><g clip-path="url(#419e147057)"><path fill="#fbc520" d="M 0.125 0.0429688 L 44.800781 0.0429688 L 44.800781 72.464844 L 0.125 72.464844 Z M 0.125 0.0429688 " fill-opacity="1" fill-rule="nonzero"/></g></g></g></g><g clip-path="url(#93200cbf38)"><g transform="matrix(1, 0, 0, 1, 76, 48)"><g clip-path="url(#37148dfebc)"><g clip-path="url(#12d6be4dcd)"><path fill="#e2a9f1" d="M 0.304688 0.652344 L 187.886719 0.652344 L 187.886719 22.957031 L 0.304688 22.957031 Z M 0.304688 0.652344 " fill-opacity="1" fill-rule="nonzero"/></g></g></g></g><g clip-path="url(#2596fa9366)"><g transform="matrix(1, 0, 0, 1, 105, 29)"><g clip-path="url(#707435b44d)"><g clip-path="url(#2d5ebcebff)"><path fill="#e2a9f1" d="M 0 0.609375 L 158.882812 0.609375 L 158.882812 10 L 0 10 Z M 0 0.609375 " fill-opacity="1" fill-rule="nonzero"/></g></g></g></g><g clip-path="url(#3d94b6e3bf)"><g transform="matrix(1, 0, 0, 1, 148, 18)"><g clip-path="url(#68821a3211)"><g clip-path="url(#183087c303)"><path fill="#e2a9f1" d="M 0.523438 0.457031 L 76.238281 0.457031 L 76.238281 22.761719 L 0.523438 22.761719 Z M 0.523438 0.457031 " fill-opacity="1" fill-rule="nonzero"/></g></g></g></g></svg>