<svg xmlns="http://www.w3.org/2000/svg" xmlns:xlink="http://www.w3.org/1999/xlink" width="500" zoomAndPan="magnify" viewBox="0 0 375 374.999991" height="500" preserveAspectRatio="xMidYMid meet" version="1.0"><defs><clipPath id="24fecc4cc8"><path d="M 6.847656 6.847656 L 368.347656 6.847656 L 368.347656 368.347656 L 6.847656 368.347656 Z M 6.847656 6.847656 " clip-rule="nonzero"/></clipPath><clipPath id="47f9d32b04"><path d="M 72 111 L 279 111 L 279 320.800781 L 72 320.800781 Z M 72 111 " clip-rule="nonzero"/></clipPath><clipPath id="97217b9aa6"><path d="M 273 148 L 348.113281 148 L 348.113281 283 L 273 283 Z M 273 148 " clip-rule="nonzero"/></clipPath><clipPath id="6d0ec80ed0"><path d="M 69.863281 47.800781 L 282 47.800781 L 282 119 L 69.863281 119 Z M 69.863281 47.800781 " clip-rule="nonzero"/></clipPath><clipPath id="dbd84672dd"><path d="M 54 55 L 321 55 L 321 320.855469 L 54 320.855469 Z M 54 55 " clip-rule="nonzero"/></clipPath></defs><g clip-path="url(#24fecc4cc8)"><path fill="#38b6ff" d="M 368.148438 187.5 C 368.148438 287.257812 287.265625 368.148438 187.5 368.148438 C 87.730469 368.148438 6.847656 287.257812 6.847656 187.5 C 6.847656 87.730469 87.730469 6.847656 187.5 6.847656 C 287.265625 6.847656 368.148438 87.730469 368.148438 187.5 Z M 368.148438 187.5 " fill-opacity="1" fill-rule="nonzero"/></g><path fill="#38b6ff" d="M 103.476562 235.03125 C 103.476562 222.566406 104.019531 210.640625 105.101562 199 C 95.617188 208.753906 85.332031 218.5 74.21875 227.171875 C 72.324219 228.535156 70.15625 229.347656 67.988281 229.347656 C 64.734375 229.347656 61.484375 227.722656 59.316406 224.472656 C 57.972656 222.5625 57.429688 220.40625 57.429688 218.511719 C 57.429688 215.257812 59.054688 212.007812 61.765625 210.109375 C 88.851562 191.421875 121.632812 156.746094 134.636719 130.734375 C 135.449219 129.378906 135.722656 128.296875 135.722656 127.210938 C 135.722656 125.3125 134.097656 124.230469 130.84375 124.230469 L 72.0625 124.230469 C 67.183594 124.230469 64.476562 120.4375 64.476562 115.027344 C 64.476562 109.609375 67.183594 105.542969 72.0625 105.542969 L 103.214844 105.542969 L 103.214844 67.074219 C 103.214844 62.195312 107.550781 59.488281 113.511719 59.488281 C 119.746094 59.488281 124.078125 62.195312 124.078125 67.074219 L 124.078125 105.542969 L 141.683594 105.542969 C 152.25 105.542969 159.015625 111.503906 159.015625 120.707031 C 159.015625 124.230469 157.933594 128.296875 156.035156 132.628906 C 149.261719 145.910156 138.703125 161.34375 127.863281 174.621094 C 140.859375 187.898438 152.785156 197.113281 162.265625 203.335938 C 165.789062 205.503906 167.414062 208.210938 167.414062 211.472656 C 167.414062 213.632812 166.601562 215.527344 165.25 217.695312 C 163.351562 220.675781 160.371094 222.042969 157.660156 222.042969 C 155.765625 222.042969 153.597656 221.492188 151.96875 220.144531 C 142.214844 212.828125 132.46875 203.34375 122.171875 192.246094 C 123.257812 205.792969 123.800781 216.625 123.800781 229.628906 L 123.800781 303.855469 C 123.800781 308.726562 119.734375 311.445312 113.5 311.445312 C 107.539062 311.445312 103.476562 308.464844 103.476562 303.855469 Z M 219.152344 181.125 C 218.078125 244.253906 199.371094 283.253906 155.765625 307.640625 C 153.597656 308.996094 151.429688 309.808594 149.53125 309.808594 C 146.28125 309.808594 143.027344 308.183594 140.859375 304.660156 C 139.503906 302.761719 138.964844 300.59375 138.964844 298.425781 C 138.964844 295.175781 140.589844 292.464844 143.839844 290.308594 C 182.582031 268.640625 198.296875 238.832031 199.371094 181.136719 L 191.25 181.136719 C 174.992188 181.136719 167.949219 174.902344 167.949219 159.738281 L 167.949219 95.246094 C 167.949219 79.800781 174.992188 73.296875 191.25 73.296875 L 276.859375 73.296875 C 292.847656 73.296875 300.152344 79.800781 300.152344 95.246094 L 300.152344 159.71875 C 300.152344 174.894531 292.847656 181.113281 276.859375 181.113281 L 261.964844 181.113281 L 261.964844 279.449219 C 261.964844 285.683594 264.125 286.765625 277.140625 286.765625 C 288.511719 286.765625 292.304688 284.878906 294.203125 278.917969 C 295.828125 272.402344 296.914062 259.679688 297.183594 248.847656 C 297.183594 243.972656 300.707031 240.992188 305.84375 240.992188 L 306.65625 240.992188 C 312.617188 241.261719 315.871094 243.972656 315.871094 249.121094 L 315.871094 249.671875 C 315.597656 266.191406 313.703125 281.90625 309.378906 291.933594 C 307.75 295.726562 305.03125 298.707031 301.519531 300.875 C 296.371094 303.855469 287.699219 305.742188 276.058594 305.742188 L 271.449219 305.742188 C 246.800781 305.484375 241.925781 299.78125 241.925781 285.972656 L 241.925781 181.125 Z M 271.710938 162.429688 C 276.871094 162.429688 279.851562 160.53125 279.851562 154.570312 L 279.851562 100.394531 C 279.851562 94.164062 276.871094 92.816406 271.710938 92.816406 L 196.410156 92.816406 C 190.992188 92.816406 188.28125 94.171875 188.28125 100.394531 L 188.28125 154.578125 C 188.28125 160.542969 190.992188 162.4375 196.410156 162.4375 L 271.710938 162.4375 Z M 271.710938 162.429688 " fill-opacity="1" fill-rule="nonzero"/><g clip-path="url(#47f9d32b04)"><path fill="#ffffff" d="M 278.441406 303.414062 C 278.441406 313.203125 270.503906 321.140625 260.710938 321.140625 L 90.191406 321.140625 C 80.402344 321.140625 72.464844 313.203125 72.464844 303.414062 L 72.464844 129.167969 C 72.464844 119.375 80.402344 111.441406 90.191406 111.441406 L 260.710938 111.441406 C 270.503906 111.441406 278.441406 119.375 278.441406 129.167969 Z M 278.441406 303.414062 " fill-opacity="1" fill-rule="nonzero"/></g><g clip-path="url(#97217b9aa6)"><path fill="#ffffff" d="M 303.386719 282.777344 L 273.308594 282.777344 L 273.308594 255.488281 L 303.386719 255.488281 C 313.113281 255.488281 321.023438 247.574219 321.023438 237.851562 L 321.023438 192.933594 C 321.023438 183.207031 313.113281 175.296875 303.386719 175.296875 L 276.914062 175.296875 L 276.914062 148.003906 L 303.386719 148.003906 C 328.160156 148.003906 348.316406 168.160156 348.316406 192.933594 L 348.316406 237.851562 C 348.316406 262.621094 328.160156 282.777344 303.386719 282.777344 Z M 303.386719 282.777344 " fill-opacity="1" fill-rule="nonzero"/></g><path fill="#fbc520" d="M 92.542969 116.144531 L 259.191406 116.144531 L 259.191406 300.902344 L 92.542969 300.902344 Z M 92.542969 116.144531 " fill-opacity="1" fill-rule="nonzero"/><g clip-path="url(#6d0ec80ed0)"><path fill="#ffffff" d="M 251.847656 78.117188 C 251.757812 78.117188 251.671875 78.117188 251.582031 78.117188 C 245.167969 66.335938 231.992188 58.652344 217.597656 58.652344 C 213.273438 58.652344 209.058594 59.328125 205.007812 60.65625 C 197.808594 52.539062 187.140625 47.800781 175.664062 47.800781 C 163.988281 47.800781 153.222656 52.664062 146.027344 60.984375 C 141.699219 59.453125 137.070312 58.652344 132.410156 58.652344 C 116.289062 58.652344 102.148438 67.988281 96.703125 81.792969 C 81.714844 83.21875 69.980469 95 69.980469 109.289062 C 69.980469 114.160156 73.929688 118.109375 78.800781 118.109375 L 268.53125 118.109375 C 281.246094 118.109375 281.675781 109.484375 281.675781 105.804688 C 281.675781 90.535156 268.292969 78.117188 251.847656 78.117188 Z M 251.847656 78.117188 " fill-opacity="1" fill-rule="nonzero"/></g><path fill="#fbc520" d="M 122.667969 118.550781 C 122.667969 125.300781 117.195312 130.769531 110.445312 130.769531 C 103.699219 130.769531 98.230469 125.300781 98.230469 118.550781 C 98.230469 111.804688 103.699219 106.332031 110.445312 106.332031 C 117.195312 106.332031 122.667969 111.804688 122.667969 118.550781 Z M 122.667969 118.550781 " fill-opacity="1" fill-rule="nonzero"/><path fill="#ffffff" d="M 110.445312 132.292969 C 102.867188 132.292969 96.707031 126.125 96.707031 118.550781 C 96.707031 110.976562 102.867188 104.808594 110.445312 104.808594 C 118.023438 104.808594 124.191406 110.976562 124.191406 118.550781 C 124.191406 126.125 118.023438 132.292969 110.445312 132.292969 Z M 110.445312 107.855469 C 104.546875 107.855469 99.753906 112.652344 99.753906 118.550781 C 99.753906 124.449219 104.546875 129.246094 110.445312 129.246094 C 116.339844 129.246094 121.136719 124.449219 121.136719 118.550781 C 121.136719 112.652344 116.339844 107.855469 110.445312 107.855469 Z M 110.445312 107.855469 " fill-opacity="1" fill-rule="nonzero"/><path fill="#fbc520" d="M 139 118.550781 C 139 123.0625 135.34375 126.71875 130.832031 126.71875 C 126.320312 126.71875 122.667969 123.0625 122.667969 118.550781 C 122.667969 114.039062 126.320312 110.378906 130.832031 110.378906 C 135.34375 110.378906 139 114.039062 139 118.550781 Z M 139 118.550781 " fill-opacity="1" fill-rule="nonzero"/><path fill="#ffffff" d="M 130.832031 127.738281 C 125.765625 127.738281 121.644531 123.617188 121.644531 118.550781 C 121.644531 113.484375 125.765625 109.363281 130.832031 109.363281 C 135.898438 109.363281 140.019531 113.484375 140.019531 118.550781 C 140.019531 123.617188 135.898438 127.738281 130.832031 127.738281 Z M 130.832031 111.40625 C 126.894531 111.40625 123.679688 114.605469 123.679688 118.550781 C 123.679688 122.496094 126.894531 125.703125 130.832031 125.703125 C 134.777344 125.703125 137.984375 122.496094 137.984375 118.550781 C 137.984375 114.605469 134.777344 111.40625 130.832031 111.40625 Z M 130.832031 111.40625 " fill-opacity="1" fill-rule="nonzero"/><path fill="#fbc520" d="M 198.445312 118.550781 C 198.445312 126.007812 192.402344 132.054688 184.941406 132.054688 C 177.480469 132.054688 171.441406 126.007812 171.441406 118.550781 C 171.441406 111.09375 177.480469 105.050781 184.941406 105.050781 C 192.402344 105.050781 198.445312 111.097656 198.445312 118.550781 Z M 198.445312 118.550781 " fill-opacity="1" fill-rule="nonzero"/><path fill="#ffffff" d="M 184.941406 133.738281 C 176.570312 133.738281 169.753906 126.921875 169.753906 118.550781 C 169.753906 110.175781 176.570312 103.363281 184.941406 103.363281 C 193.3125 103.363281 200.128906 110.175781 200.128906 118.550781 C 200.128906 126.921875 193.3125 133.738281 184.941406 133.738281 Z M 184.941406 106.734375 C 178.429688 106.734375 173.117188 112.035156 173.117188 118.550781 C 173.117188 125.070312 178.429688 130.367188 184.941406 130.367188 C 191.460938 130.367188 196.757812 125.070312 196.757812 118.550781 C 196.757812 112.035156 191.460938 106.734375 184.941406 106.734375 Z M 184.941406 106.734375 " fill-opacity="1" fill-rule="nonzero"/><path fill="#fbc520" d="M 213.046875 123.445312 C 213.046875 127.480469 209.773438 130.746094 205.746094 130.746094 C 201.714844 130.746094 198.445312 127.480469 198.445312 123.445312 C 198.445312 119.414062 201.714844 116.144531 205.746094 116.144531 C 209.773438 116.144531 213.046875 119.414062 213.046875 123.445312 Z M 213.046875 123.445312 " fill-opacity="1" fill-rule="nonzero"/><path fill="#ffffff" d="M 205.746094 131.652344 C 201.21875 131.652344 197.535156 127.972656 197.535156 123.445312 C 197.535156 118.917969 201.21875 115.234375 205.746094 115.234375 C 210.269531 115.234375 213.953125 118.917969 213.953125 123.445312 C 213.953125 127.972656 210.269531 131.652344 205.746094 131.652344 Z M 205.746094 117.058594 C 202.21875 117.058594 199.355469 119.925781 199.355469 123.445312 C 199.355469 126.96875 202.21875 129.832031 205.746094 129.832031 C 209.269531 129.832031 212.132812 126.96875 212.132812 123.445312 C 212.132812 119.925781 209.269531 117.058594 205.746094 117.058594 Z M 205.746094 117.058594 " fill-opacity="1" fill-rule="nonzero"/><path fill="#fbc520" d="M 171.441406 118.550781 C 171.441406 122.582031 168.167969 125.851562 164.136719 125.851562 C 160.109375 125.851562 156.839844 122.582031 156.839844 118.550781 C 156.839844 114.515625 160.109375 111.25 164.136719 111.25 C 168.167969 111.25 171.441406 114.519531 171.441406 118.550781 Z M 171.441406 118.550781 " fill-opacity="1" fill-rule="nonzero"/><path fill="#ffffff" d="M 164.136719 126.761719 C 159.613281 126.761719 155.929688 123.078125 155.929688 118.550781 C 155.929688 114.023438 159.613281 110.335938 164.136719 110.335938 C 168.664062 110.335938 172.347656 114.023438 172.347656 118.550781 C 172.347656 123.078125 168.664062 126.761719 164.136719 126.761719 Z M 164.136719 112.164062 C 160.617188 112.164062 157.75 115.027344 157.75 118.550781 C 157.75 122.074219 160.617188 124.9375 164.136719 124.9375 C 167.664062 124.9375 170.527344 122.078125 170.527344 118.550781 C 170.527344 115.027344 167.664062 112.164062 164.136719 112.164062 Z M 164.136719 112.164062 " fill-opacity="1" fill-rule="nonzero"/><path fill="#fbc520" d="M 156.839844 118.550781 C 156.839844 121.464844 154.480469 123.824219 151.566406 123.824219 C 148.65625 123.824219 146.296875 121.464844 146.296875 118.550781 C 146.296875 115.640625 148.65625 113.277344 151.566406 113.277344 C 154.480469 113.28125 156.839844 115.640625 156.839844 118.550781 Z M 156.839844 118.550781 " fill-opacity="1" fill-rule="nonzero"/><path fill="#ffffff" d="M 151.566406 124.480469 C 148.296875 124.480469 145.636719 121.824219 145.636719 118.550781 C 145.636719 115.28125 148.296875 112.621094 151.566406 112.621094 C 154.839844 112.621094 157.496094 115.28125 157.496094 118.550781 C 157.496094 121.824219 154.839844 124.480469 151.566406 124.480469 Z M 151.566406 113.933594 C 149.023438 113.933594 146.949219 116.007812 146.949219 118.550781 C 146.949219 121.097656 149.023438 123.164062 151.566406 123.164062 C 154.113281 123.164062 156.179688 121.097656 156.179688 118.550781 C 156.179688 116.007812 154.113281 113.933594 151.566406 113.933594 Z M 151.566406 113.933594 " fill-opacity="1" fill-rule="nonzero"/><path fill="#fbc520" d="M 146.296875 118.550781 C 146.296875 120.675781 144.574219 122.390625 142.457031 122.390625 C 140.339844 122.390625 138.617188 120.675781 138.617188 118.550781 C 138.617188 116.433594 140.339844 114.710938 142.457031 114.710938 C 144.574219 114.710938 146.296875 116.433594 146.296875 118.550781 Z M 146.296875 118.550781 " fill-opacity="1" fill-rule="nonzero"/><path fill="#ffffff" d="M 142.457031 122.867188 C 140.074219 122.867188 138.136719 120.933594 138.136719 118.550781 C 138.136719 116.167969 140.074219 114.230469 142.457031 114.230469 C 144.835938 114.230469 146.773438 116.167969 146.773438 118.550781 C 146.773438 120.933594 144.835938 122.867188 142.457031 122.867188 Z M 142.457031 115.1875 C 140.601562 115.1875 139.09375 116.695312 139.09375 118.550781 C 139.09375 120.402344 140.601562 121.910156 142.457031 121.910156 C 144.308594 121.910156 145.8125 120.402344 145.8125 118.550781 C 145.8125 116.695312 144.308594 115.1875 142.457031 115.1875 Z M 142.457031 115.1875 " fill-opacity="1" fill-rule="nonzero"/><path fill="#fbc520" d="M 97.820312 118.550781 C 97.820312 121.464844 95.453125 123.824219 92.542969 123.824219 C 89.632812 123.824219 87.273438 121.464844 87.273438 118.550781 C 87.273438 115.640625 89.632812 113.277344 92.542969 113.277344 C 95.453125 113.277344 97.820312 115.640625 97.820312 118.550781 Z M 97.820312 118.550781 " fill-opacity="1" fill-rule="nonzero"/><path fill="#ffffff" d="M 92.542969 124.480469 C 89.277344 124.480469 86.613281 121.824219 86.613281 118.550781 C 86.613281 115.28125 89.277344 112.621094 92.542969 112.621094 C 95.816406 112.621094 98.472656 115.28125 98.472656 118.550781 C 98.472656 121.824219 95.816406 124.480469 92.542969 124.480469 Z M 92.542969 113.933594 C 90 113.933594 87.933594 116.007812 87.933594 118.550781 C 87.933594 121.097656 90 123.164062 92.542969 123.164062 C 95.089844 123.164062 97.160156 121.097656 97.160156 118.550781 C 97.160156 116.007812 95.089844 113.933594 92.542969 113.933594 Z M 92.542969 113.933594 " fill-opacity="1" fill-rule="nonzero"/><path fill="#fbc520" d="M 245.890625 118.550781 C 245.890625 120.90625 243.980469 122.808594 241.625 122.808594 C 239.269531 122.808594 237.367188 120.90625 237.367188 118.550781 C 237.367188 116.199219 239.269531 114.292969 241.625 114.292969 C 243.980469 114.292969 245.890625 116.203125 245.890625 118.550781 Z M 245.890625 118.550781 " fill-opacity="1" fill-rule="nonzero"/><path fill="#ffffff" d="M 241.625 123.339844 C 238.984375 123.339844 236.835938 121.191406 236.835938 118.550781 C 236.835938 115.910156 238.984375 113.757812 241.625 113.757812 C 244.265625 113.757812 246.417969 115.910156 246.417969 118.550781 C 246.417969 121.191406 244.265625 123.339844 241.625 123.339844 Z M 241.625 114.820312 C 239.566406 114.820312 237.894531 116.492188 237.894531 118.550781 C 237.894531 120.609375 239.566406 122.28125 241.625 122.28125 C 243.683594 122.28125 245.355469 120.609375 245.355469 118.550781 C 245.355469 116.492188 243.683594 114.820312 241.625 114.820312 Z M 241.625 114.820312 " fill-opacity="1" fill-rule="nonzero"/><path fill="#fbc520" d="M 263.722656 118.550781 C 263.722656 123.246094 259.917969 127.054688 255.21875 127.054688 C 250.519531 127.054688 246.714844 123.246094 246.714844 118.550781 C 246.714844 113.855469 250.519531 110.050781 255.21875 110.050781 C 259.917969 110.050781 263.722656 113.859375 263.722656 118.550781 Z M 263.722656 118.550781 " fill-opacity="1" fill-rule="nonzero"/><path fill="#ffffff" d="M 255.21875 128.117188 C 249.941406 128.117188 245.652344 123.824219 245.652344 118.550781 C 245.652344 113.273438 249.941406 108.988281 255.21875 108.988281 C 260.496094 108.988281 264.785156 113.273438 264.785156 118.550781 C 264.785156 123.824219 260.496094 128.117188 255.21875 128.117188 Z M 255.21875 111.105469 C 251.117188 111.105469 247.777344 114.449219 247.777344 118.550781 C 247.777344 122.65625 251.113281 125.992188 255.21875 125.992188 C 259.324219 125.992188 262.664062 122.65625 262.664062 118.550781 C 262.664062 114.445312 259.324219 111.105469 255.21875 111.105469 Z M 255.21875 111.105469 " fill-opacity="1" fill-rule="nonzero"/><path fill="#fbc520" d="M 236.167969 118.109375 C 236.167969 124.492188 230.992188 129.667969 224.605469 129.667969 C 218.222656 129.667969 213.046875 124.492188 213.046875 118.109375 C 213.046875 111.722656 218.222656 106.546875 224.605469 106.546875 C 230.992188 106.546875 236.167969 111.722656 236.167969 118.109375 Z M 236.167969 118.109375 " fill-opacity="1" fill-rule="nonzero"/><path fill="#ffffff" d="M 224.605469 131.113281 C 217.4375 131.113281 211.605469 125.277344 211.605469 118.109375 C 211.605469 110.9375 217.4375 105.105469 224.605469 105.105469 C 231.777344 105.105469 237.617188 110.9375 237.617188 118.109375 C 237.617188 125.277344 231.777344 131.113281 224.605469 131.113281 Z M 224.605469 107.988281 C 219.027344 107.988281 214.488281 112.527344 214.488281 118.109375 C 214.488281 123.6875 219.027344 128.226562 224.605469 128.226562 C 230.1875 128.226562 234.726562 123.6875 234.726562 118.109375 C 234.726562 112.527344 230.1875 107.988281 224.605469 107.988281 Z M 224.605469 107.988281 " fill-opacity="1" fill-rule="nonzero"/><path fill="#ffffff" d="M 236.167969 158.429688 C 236.167969 164.816406 230.992188 169.992188 224.605469 169.992188 C 218.222656 169.992188 213.046875 164.816406 213.046875 158.429688 C 213.046875 152.046875 218.222656 146.867188 224.605469 146.867188 C 230.992188 146.863281 236.167969 152.046875 236.167969 158.429688 Z M 236.167969 158.429688 " fill-opacity="1" fill-rule="nonzero"/><path fill="#ffffff" d="M 128.890625 181.554688 C 128.890625 182.140625 128.832031 182.71875 128.71875 183.292969 C 128.605469 183.863281 128.4375 184.421875 128.214844 184.960938 C 127.988281 185.5 127.714844 186.011719 127.390625 186.496094 C 127.066406 186.984375 126.699219 187.433594 126.285156 187.847656 C 125.871094 188.257812 125.421875 188.628906 124.9375 188.953125 C 124.449219 189.277344 123.9375 189.550781 123.398438 189.773438 C 122.859375 189.996094 122.300781 190.167969 121.730469 190.28125 C 121.15625 190.394531 120.578125 190.453125 119.996094 190.453125 C 119.410156 190.453125 118.832031 190.394531 118.257812 190.28125 C 117.6875 190.167969 117.128906 189.996094 116.589844 189.773438 C 116.050781 189.550781 115.539062 189.277344 115.050781 188.953125 C 114.566406 188.628906 114.117188 188.257812 113.703125 187.847656 C 113.292969 187.433594 112.921875 186.984375 112.597656 186.5 C 112.273438 186.011719 112 185.5 111.777344 184.960938 C 111.550781 184.421875 111.382812 183.863281 111.269531 183.292969 C 111.15625 182.71875 111.097656 182.140625 111.097656 181.554688 C 111.097656 180.972656 111.15625 180.394531 111.269531 179.820312 C 111.382812 179.246094 111.550781 178.691406 111.777344 178.152344 C 112 177.613281 112.273438 177.097656 112.597656 176.613281 C 112.921875 176.128906 113.292969 175.679688 113.703125 175.265625 C 114.117188 174.851562 114.566406 174.484375 115.050781 174.160156 C 115.539062 173.835938 116.050781 173.5625 116.589844 173.335938 C 117.128906 173.113281 117.6875 172.945312 118.257812 172.832031 C 118.832031 172.71875 119.410156 172.660156 119.996094 172.660156 C 120.578125 172.660156 121.15625 172.71875 121.730469 172.832031 C 122.300781 172.945312 122.859375 173.113281 123.398438 173.335938 C 123.9375 173.5625 124.449219 173.835938 124.9375 174.160156 C 125.421875 174.484375 125.871094 174.851562 126.285156 175.265625 C 126.699219 175.679688 127.066406 176.128906 127.390625 176.613281 C 127.714844 177.097656 127.988281 177.613281 128.214844 178.152344 C 128.4375 178.691406 128.605469 179.246094 128.71875 179.820312 C 128.832031 180.394531 128.890625 180.972656 128.890625 181.554688 Z M 128.890625 181.554688 " fill-opacity="1" fill-rule="nonzero"/><path fill="#ffffff" d="M 172.015625 155.929688 C 172.015625 163.699219 165.714844 169.992188 157.953125 169.992188 C 150.1875 169.992188 143.886719 163.699219 143.886719 155.929688 C 143.886719 148.164062 150.1875 141.871094 157.953125 141.871094 C 165.714844 141.871094 172.015625 148.164062 172.015625 155.929688 Z M 172.015625 155.929688 " fill-opacity="1" fill-rule="nonzero"/><path fill="#ffffff" d="M 201.648438 199.335938 C 201.648438 205.496094 196.648438 210.496094 190.488281 210.496094 C 184.324219 210.496094 179.324219 205.496094 179.324219 199.335938 C 179.324219 193.175781 184.324219 188.171875 190.488281 188.171875 C 196.648438 188.171875 201.648438 193.175781 201.648438 199.335938 Z M 201.648438 199.335938 " fill-opacity="1" fill-rule="nonzero"/><path fill="#ffffff" d="M 159.273438 225.378906 C 159.273438 228.957031 156.367188 231.863281 152.78125 231.863281 C 149.199219 231.863281 146.296875 228.960938 146.296875 225.378906 C 146.296875 221.796875 149.199219 218.886719 152.78125 218.886719 C 156.367188 218.886719 159.273438 221.796875 159.273438 225.378906 Z M 159.273438 225.378906 " fill-opacity="1" fill-rule="nonzero"/><path fill="#ffffff" d="M 237.367188 217.609375 C 237.367188 220.5625 234.976562 222.953125 232.027344 222.953125 C 229.082031 222.953125 226.691406 220.5625 226.691406 217.609375 C 226.691406 214.667969 229.082031 212.273438 232.027344 212.273438 C 234.976562 212.273438 237.367188 214.667969 237.367188 217.609375 Z M 237.367188 217.609375 " fill-opacity="1" fill-rule="nonzero"/><path fill="#ffffff" d="M 205.648438 245.378906 C 205.648438 247.589844 203.855469 249.378906 201.648438 249.378906 C 199.433594 249.378906 197.644531 247.589844 197.644531 245.378906 C 197.644531 243.167969 199.433594 241.375 201.648438 241.375 C 203.855469 241.375 205.648438 243.167969 205.648438 245.378906 Z M 205.648438 245.378906 " fill-opacity="1" fill-rule="nonzero"/><path fill="#ffffff" d="M 124 279.925781 C 124 282.140625 122.207031 283.933594 119.996094 283.933594 C 117.78125 283.933594 115.996094 282.140625 115.996094 279.925781 C 115.996094 277.714844 117.78125 275.929688 119.996094 275.929688 C 122.207031 275.929688 124 277.714844 124 279.925781 Z M 124 279.925781 " fill-opacity="1" fill-rule="nonzero"/><path fill="#ffffff" d="M 231.507812 268.304688 C 231.507812 269.90625 230.210938 271.210938 228.609375 271.210938 C 227.007812 271.210938 225.707031 269.902344 225.707031 268.304688 C 225.707031 266.703125 227.011719 265.40625 228.609375 265.40625 C 230.210938 265.40625 231.507812 266.703125 231.507812 268.304688 Z M 231.507812 268.304688 " fill-opacity="1" fill-rule="nonzero"/><g clip-path="url(#dbd84672dd)"><path fill="#ed1c24" d="M 304.980469 320.8125 C 300.972656 320.8125 296.96875 319.289062 293.914062 316.238281 L 59.1875 82.007812 C 53.082031 75.910156 53.082031 66.019531 59.1875 59.921875 C 65.300781 53.824219 75.207031 53.824219 81.320312 59.921875 L 316.042969 294.15625 C 322.152344 300.253906 322.152344 310.140625 316.042969 316.238281 C 312.988281 319.289062 308.980469 320.8125 304.980469 320.8125 " fill-opacity="1" fill-rule="nonzero"/><path fill="#ed1c24" d="M 70.253906 320.8125 C 66.25 320.8125 62.246094 319.289062 59.1875 316.238281 C 53.082031 310.140625 53.082031 300.253906 59.1875 294.15625 L 293.914062 59.921875 C 300.027344 53.828125 309.933594 53.824219 316.042969 59.921875 C 322.152344 66.019531 322.152344 75.910156 316.042969 82.007812 L 81.320312 316.238281 C 78.265625 319.289062 74.257812 320.8125 70.253906 320.8125 " fill-opacity="1" fill-rule="nonzero"/></g></svg>