<svg xmlns="http://www.w3.org/2000/svg" xmlns:xlink="http://www.w3.org/1999/xlink" width="500" zoomAndPan="magnify" viewBox="0 0 375 374.999991" height="500" preserveAspectRatio="xMidYMid meet" version="1.0"><defs><g/><clipPath id="d1462e573f"><path d="M 6.847656 6.847656 L 368.347656 6.847656 L 368.347656 368.347656 L 6.847656 368.347656 Z M 6.847656 6.847656 " clip-rule="nonzero"/></clipPath></defs><g clip-path="url(#d1462e573f)"><path fill="#dd2e44" d="M 368.148438 187.5 C 368.148438 287.257812 287.265625 368.148438 187.5 368.148438 C 87.730469 368.148438 6.847656 287.257812 6.847656 187.5 C 6.847656 87.730469 87.730469 6.847656 187.5 6.847656 C 287.265625 6.847656 368.148438 87.730469 368.148438 187.5 Z M 368.148438 187.5 " fill-opacity="1" fill-rule="nonzero"/></g><path fill="#dd2e44" d="M 103.476562 235.03125 C 103.476562 222.566406 104.019531 210.640625 105.101562 199 C 95.617188 208.753906 85.332031 218.5 74.21875 227.171875 C 72.324219 228.535156 70.15625 229.347656 67.988281 229.347656 C 64.734375 229.347656 61.484375 227.722656 59.316406 224.472656 C 57.972656 222.5625 57.429688 220.40625 57.429688 218.511719 C 57.429688 215.257812 59.054688 212.007812 61.765625 210.109375 C 88.851562 191.421875 121.632812 156.746094 134.636719 130.734375 C 135.449219 129.378906 135.722656 128.296875 135.722656 127.210938 C 135.722656 125.3125 134.097656 124.230469 130.84375 124.230469 L 72.0625 124.230469 C 67.183594 124.230469 64.476562 120.4375 64.476562 115.027344 C 64.476562 109.609375 67.183594 105.542969 72.0625 105.542969 L 103.214844 105.542969 L 103.214844 67.074219 C 103.214844 62.195312 107.550781 59.488281 113.511719 59.488281 C 119.746094 59.488281 124.078125 62.195312 124.078125 67.074219 L 124.078125 105.542969 L 141.683594 105.542969 C 152.25 105.542969 159.015625 111.503906 159.015625 120.707031 C 159.015625 124.230469 157.933594 128.296875 156.035156 132.628906 C 149.261719 145.910156 138.703125 161.34375 127.863281 174.621094 C 140.859375 187.898438 152.785156 197.113281 162.265625 203.335938 C 165.789062 205.503906 167.414062 208.210938 167.414062 211.472656 C 167.414062 213.632812 166.601562 215.527344 165.25 217.695312 C 163.351562 220.675781 160.371094 222.042969 157.660156 222.042969 C 155.765625 222.042969 153.597656 221.492188 151.96875 220.144531 C 142.214844 212.828125 132.46875 203.34375 122.171875 192.246094 C 123.257812 205.792969 123.800781 216.625 123.800781 229.628906 L 123.800781 303.855469 C 123.800781 308.726562 119.734375 311.445312 113.5 311.445312 C 107.539062 311.445312 103.476562 308.464844 103.476562 303.855469 Z M 219.152344 181.125 C 218.078125 244.253906 199.371094 283.253906 155.765625 307.640625 C 153.597656 308.996094 151.429688 309.808594 149.53125 309.808594 C 146.28125 309.808594 143.027344 308.183594 140.859375 304.660156 C 139.503906 302.761719 138.964844 300.59375 138.964844 298.425781 C 138.964844 295.175781 140.589844 292.464844 143.839844 290.308594 C 182.582031 268.640625 198.296875 238.832031 199.371094 181.136719 L 191.25 181.136719 C 174.992188 181.136719 167.949219 174.902344 167.949219 159.738281 L 167.949219 95.246094 C 167.949219 79.800781 174.992188 73.296875 191.25 73.296875 L 276.859375 73.296875 C 292.847656 73.296875 300.152344 79.800781 300.152344 95.246094 L 300.152344 159.71875 C 300.152344 174.894531 292.847656 181.113281 276.859375 181.113281 L 261.964844 181.113281 L 261.964844 279.449219 C 261.964844 285.683594 264.125 286.765625 277.140625 286.765625 C 288.511719 286.765625 292.304688 284.878906 294.203125 278.917969 C 295.828125 272.402344 296.914062 259.679688 297.183594 248.847656 C 297.183594 243.972656 300.707031 240.992188 305.84375 240.992188 L 306.65625 240.992188 C 312.617188 241.261719 315.871094 243.972656 315.871094 249.121094 L 315.871094 249.671875 C 315.597656 266.191406 313.703125 281.90625 309.378906 291.933594 C 307.75 295.726562 305.03125 298.707031 301.519531 300.875 C 296.371094 303.855469 287.699219 305.742188 276.058594 305.742188 L 271.449219 305.742188 C 246.800781 305.484375 241.925781 299.78125 241.925781 285.972656 L 241.925781 181.125 Z M 271.710938 162.429688 C 276.871094 162.429688 279.851562 160.53125 279.851562 154.570312 L 279.851562 100.394531 C 279.851562 94.164062 276.871094 92.816406 271.710938 92.816406 L 196.410156 92.816406 C 190.992188 92.816406 188.28125 94.171875 188.28125 100.394531 L 188.28125 154.578125 C 188.28125 160.542969 190.992188 162.4375 196.410156 162.4375 L 271.710938 162.4375 Z M 271.710938 162.429688 " fill-opacity="1" fill-rule="nonzero"/><g fill="#ffffff" fill-opacity="1"><g transform="translate(43.875002, 299.465844)"><g><path d="M 242.15625 -72.96875 C 248.851562 -72.96875 254.832031 -72.96875 260.09375 -72.96875 C 265.363281 -72.96875 269.914062 -73.0625 273.75 -73.25 L 273.75 -30.15625 C 269.914062 -30.351562 265.363281 -30.453125 260.09375 -30.453125 C 254.832031 -30.453125 248.851562 -30.453125 242.15625 -30.453125 L 220.890625 -30.453125 C 220.890625 -26.804688 220.9375 -23.066406 221.03125 -19.234375 C 221.132812 -15.410156 221.1875 -12.734375 221.1875 -11.203125 C 221.1875 -0.472656 215.726562 8.570312 204.8125 15.9375 C 193.894531 23.3125 176.945312 27 153.96875 27 C 152.625 23.164062 150.515625 17.992188 147.640625 11.484375 C 144.773438 4.972656 141.90625 -1.34375 139.03125 -7.46875 C 135.394531 -4.207031 130.65625 0.144531 124.8125 5.59375 C 118.96875 11.050781 112.984375 16.367188 106.859375 21.546875 C 102.265625 17.140625 96.566406 12.492188 89.765625 7.609375 C 82.960938 2.722656 76.207031 -1.773438 69.5 -5.890625 C 62.800781 -10.003906 57.0625 -13.113281 52.28125 -15.21875 C 54.957031 -17.519531 58.019531 -20.007812 61.46875 -22.6875 C 64.914062 -25.375 68.171875 -27.960938 71.234375 -30.453125 L 44.53125 -30.453125 C 38.007812 -30.453125 32.066406 -30.453125 26.703125 -30.453125 C 21.347656 -30.453125 16.753906 -30.351562 12.921875 -30.15625 L 12.921875 -73.25 C 16.753906 -73.0625 21.347656 -72.96875 26.703125 -72.96875 C 32.066406 -72.96875 38.007812 -72.96875 44.53125 -72.96875 L 172.34375 -72.96875 L 172.34375 -81 L 42.21875 -81 C 42.414062 -82.726562 42.5625 -84.738281 42.65625 -87.03125 C 42.75 -89.332031 42.796875 -91.535156 42.796875 -93.640625 L 42.796875 -174.078125 C 42.796875 -176.367188 42.75 -178.664062 42.65625 -180.96875 C 42.5625 -183.269531 42.414062 -185.1875 42.21875 -186.71875 L 117.765625 -186.71875 L 117.765625 -191.59375 L 44.53125 -191.59375 C 38.007812 -191.59375 32.257812 -191.59375 27.28125 -191.59375 C 22.300781 -191.59375 17.898438 -191.5 14.078125 -191.3125 L 14.078125 -231.53125 C 17.898438 -231.332031 22.300781 -231.234375 27.28125 -231.234375 C 32.257812 -231.234375 38.007812 -231.234375 44.53125 -231.234375 L 117.765625 -231.234375 L 117.765625 -235.25 C 117.765625 -236.40625 117.71875 -237.796875 117.625 -239.421875 C 117.53125 -241.046875 117.390625 -242.53125 117.203125 -243.875 C 120.066406 -243.875 123.894531 -243.828125 128.6875 -243.734375 C 133.476562 -243.640625 138.550781 -243.492188 143.90625 -243.296875 C 149.269531 -243.109375 154.296875 -242.914062 158.984375 -242.71875 C 163.679688 -242.53125 167.367188 -242.34375 170.046875 -242.15625 C 169.859375 -240.8125 169.71875 -239.5625 169.625 -238.40625 C 169.53125 -237.257812 169.484375 -236.207031 169.484375 -235.25 L 169.484375 -231.234375 L 242.71875 -231.234375 C 249.039062 -231.234375 254.738281 -231.234375 259.8125 -231.234375 C 264.894531 -231.234375 269.253906 -231.332031 272.890625 -231.53125 L 272.890625 -191.3125 C 269.253906 -191.5 264.894531 -191.59375 259.8125 -191.59375 C 254.738281 -191.59375 249.039062 -191.59375 242.71875 -191.59375 L 169.484375 -191.59375 L 169.484375 -186.71875 L 247.609375 -186.71875 C 247.421875 -184.800781 247.328125 -182.785156 247.328125 -180.671875 C 247.328125 -178.566406 247.328125 -176.367188 247.328125 -174.078125 L 247.328125 -93.640625 L 247.609375 -81 L 220.609375 -81 L 220.609375 -72.96875 Z M 118.921875 -155.6875 L 93.9375 -155.6875 L 93.9375 -149.078125 L 118.921875 -149.078125 Z M 195.625 -149.078125 L 195.625 -155.6875 L 168.328125 -155.6875 L 168.328125 -149.078125 Z M 93.9375 -119.203125 L 93.9375 -112.609375 L 118.921875 -112.609375 L 118.921875 -119.203125 Z M 195.625 -112.609375 L 195.625 -119.203125 L 168.328125 -119.203125 L 168.328125 -112.609375 Z M 172.34375 -24.984375 L 172.34375 -30.453125 L 113.75 -30.453125 C 121.601562 -26.617188 129.265625 -22.5 136.734375 -18.09375 C 138.835938 -17.90625 141.945312 -17.617188 146.0625 -17.234375 C 150.1875 -16.847656 154.351562 -16.65625 158.5625 -16.65625 C 162.96875 -16.65625 166.363281 -17.226562 168.75 -18.375 C 171.144531 -19.53125 172.34375 -21.734375 172.34375 -24.984375 Z M 172.34375 -24.984375 "/></g></g></g></svg>