<svg xmlns="http://www.w3.org/2000/svg" xmlns:xlink="http://www.w3.org/1999/xlink" width="500" zoomAndPan="magnify" viewBox="0 0 375 374.999991" height="500" preserveAspectRatio="xMidYMid meet" version="1.0"><defs><g/><clipPath id="5ce04c9e34"><path d="M 6.847656 6.847656 L 368.347656 6.847656 L 368.347656 368.347656 L 6.847656 368.347656 Z M 6.847656 6.847656 " clip-rule="nonzero"/></clipPath></defs><g clip-path="url(#5ce04c9e34)"><path fill="#00bf63" d="M 368.148438 187.5 C 368.148438 287.257812 287.265625 368.148438 187.5 368.148438 C 87.730469 368.148438 6.847656 287.257812 6.847656 187.5 C 6.847656 87.730469 87.730469 6.847656 187.5 6.847656 C 287.265625 6.847656 368.148438 87.730469 368.148438 187.5 Z M 368.148438 187.5 " fill-opacity="1" fill-rule="nonzero"/></g><path fill="#00bf63" d="M 103.476562 235.03125 C 103.476562 222.566406 104.019531 210.640625 105.101562 199 C 95.617188 208.753906 85.332031 218.5 74.21875 227.171875 C 72.324219 228.535156 70.15625 229.347656 67.988281 229.347656 C 64.734375 229.347656 61.484375 227.722656 59.316406 224.472656 C 57.972656 222.5625 57.429688 220.40625 57.429688 218.511719 C 57.429688 215.257812 59.054688 212.007812 61.765625 210.109375 C 88.851562 191.421875 121.632812 156.746094 134.636719 130.734375 C 135.449219 129.378906 135.722656 128.296875 135.722656 127.210938 C 135.722656 125.3125 134.097656 124.230469 130.84375 124.230469 L 72.0625 124.230469 C 67.183594 124.230469 64.476562 120.4375 64.476562 115.027344 C 64.476562 109.609375 67.183594 105.542969 72.0625 105.542969 L 103.214844 105.542969 L 103.214844 67.074219 C 103.214844 62.195312 107.550781 59.488281 113.511719 59.488281 C 119.746094 59.488281 124.078125 62.195312 124.078125 67.074219 L 124.078125 105.542969 L 141.683594 105.542969 C 152.25 105.542969 159.015625 111.503906 159.015625 120.707031 C 159.015625 124.230469 157.933594 128.296875 156.035156 132.628906 C 149.261719 145.910156 138.703125 161.34375 127.863281 174.621094 C 140.859375 187.898438 152.785156 197.113281 162.265625 203.335938 C 165.789062 205.503906 167.414062 208.210938 167.414062 211.472656 C 167.414062 213.632812 166.601562 215.527344 165.25 217.695312 C 163.351562 220.675781 160.371094 222.042969 157.660156 222.042969 C 155.765625 222.042969 153.597656 221.492188 151.96875 220.144531 C 142.214844 212.828125 132.46875 203.34375 122.171875 192.246094 C 123.257812 205.792969 123.800781 216.625 123.800781 229.628906 L 123.800781 303.855469 C 123.800781 308.726562 119.734375 311.445312 113.5 311.445312 C 107.539062 311.445312 103.476562 308.464844 103.476562 303.855469 Z M 219.152344 181.125 C 218.078125 244.253906 199.371094 283.253906 155.765625 307.640625 C 153.597656 308.996094 151.429688 309.808594 149.53125 309.808594 C 146.28125 309.808594 143.027344 308.183594 140.859375 304.660156 C 139.503906 302.761719 138.964844 300.59375 138.964844 298.425781 C 138.964844 295.175781 140.589844 292.464844 143.839844 290.308594 C 182.582031 268.640625 198.296875 238.832031 199.371094 181.136719 L 191.25 181.136719 C 174.992188 181.136719 167.949219 174.902344 167.949219 159.738281 L 167.949219 95.246094 C 167.949219 79.800781 174.992188 73.296875 191.25 73.296875 L 276.859375 73.296875 C 292.847656 73.296875 300.152344 79.800781 300.152344 95.246094 L 300.152344 159.71875 C 300.152344 174.894531 292.847656 181.113281 276.859375 181.113281 L 261.964844 181.113281 L 261.964844 279.449219 C 261.964844 285.683594 264.125 286.765625 277.140625 286.765625 C 288.511719 286.765625 292.304688 284.878906 294.203125 278.917969 C 295.828125 272.402344 296.914062 259.679688 297.183594 248.847656 C 297.183594 243.972656 300.707031 240.992188 305.84375 240.992188 L 306.65625 240.992188 C 312.617188 241.261719 315.871094 243.972656 315.871094 249.121094 L 315.871094 249.671875 C 315.597656 266.191406 313.703125 281.90625 309.378906 291.933594 C 307.75 295.726562 305.03125 298.707031 301.519531 300.875 C 296.371094 303.855469 287.699219 305.742188 276.058594 305.742188 L 271.449219 305.742188 C 246.800781 305.484375 241.925781 299.78125 241.925781 285.972656 L 241.925781 181.125 Z M 271.710938 162.429688 C 276.871094 162.429688 279.851562 160.53125 279.851562 154.570312 L 279.851562 100.394531 C 279.851562 94.164062 276.871094 92.816406 271.710938 92.816406 L 196.410156 92.816406 C 190.992188 92.816406 188.28125 94.171875 188.28125 100.394531 L 188.28125 154.578125 C 188.28125 160.542969 190.992188 162.4375 196.410156 162.4375 L 271.710938 162.4375 Z M 271.710938 162.429688 " fill-opacity="1" fill-rule="nonzero"/><g fill="#ffffff" fill-opacity="1"><g transform="translate(43.875002, 299.465844)"><g><path d="M 87.03125 -196.1875 L 95.65625 -196.1875 C 98.53125 -196.1875 101.351562 -196.1875 104.125 -196.1875 C 106.90625 -196.1875 109.441406 -196.285156 111.734375 -196.484375 L 111.734375 -151.09375 C 109.628906 -151.28125 107.140625 -151.375 104.265625 -151.375 C 101.398438 -151.375 98.53125 -151.375 95.65625 -151.375 L 87.03125 -151.375 L 87.03125 -122.65625 C 92.78125 -124 97.859375 -125.144531 102.265625 -126.09375 C 106.671875 -127.050781 109.828125 -127.820312 111.734375 -128.40625 C 111.546875 -122.851562 111.351562 -116.722656 111.15625 -110.015625 C 110.96875 -103.316406 110.875 -97.238281 110.875 -91.78125 C 110.875 -86.320312 110.972656 -82.441406 111.171875 -80.140625 C 109.253906 -79.753906 106.140625 -79.082031 101.828125 -78.125 C 97.515625 -77.175781 92.582031 -76.125 87.03125 -74.96875 L 87.03125 -43.09375 C 87.03125 -41.363281 87.078125 -38.203125 87.171875 -33.609375 C 87.273438 -29.015625 87.375 -24.46875 87.46875 -19.96875 C 87.5625 -15.46875 87.609375 -12.351562 87.609375 -10.625 C 87.609375 -3.351562 85.359375 3.296875 80.859375 9.328125 C 76.359375 15.367188 69.894531 20.207031 61.46875 23.84375 C 53.039062 27.476562 42.890625 29.296875 31.015625 29.296875 C 29.867188 25.847656 28.144531 21.15625 25.84375 15.21875 C 23.550781 9.28125 21.113281 3.054688 18.53125 -3.453125 C 15.945312 -9.960938 13.597656 -15.707031 11.484375 -20.6875 C 11.867188 -20.488281 13.832031 -20.195312 17.375 -19.8125 C 20.914062 -19.4375 24.695312 -19.25 28.71875 -19.25 C 31.976562 -19.25 34.46875 -19.773438 36.1875 -20.828125 C 37.914062 -21.878906 38.78125 -24.03125 38.78125 -27.28125 L 38.78125 -64.921875 C 35.71875 -64.347656 32.75 -63.769531 29.875 -63.1875 C 26.8125 -62.613281 23.601562 -61.941406 20.25 -61.171875 C 16.894531 -60.410156 14.164062 -59.742188 12.0625 -59.171875 L 6.03125 -109.4375 C 8.519531 -109.632812 11.867188 -109.921875 16.078125 -110.296875 C 20.296875 -110.679688 24.414062 -111.160156 28.4375 -111.734375 C 29.96875 -111.929688 31.59375 -112.171875 33.3125 -112.453125 C 35.039062 -112.742188 36.863281 -112.984375 38.78125 -113.171875 L 38.78125 -151.375 L 23.546875 -151.375 C 20.679688 -151.375 17.859375 -151.375 15.078125 -151.375 C 12.304688 -151.375 9.769531 -151.28125 7.46875 -151.09375 L 7.46875 -196.484375 C 9.570312 -196.285156 12.0625 -196.1875 14.9375 -196.1875 C 17.8125 -196.1875 20.679688 -196.1875 23.546875 -196.1875 L 38.78125 -196.1875 L 38.78125 -230.65625 C 38.78125 -232.957031 38.726562 -235.6875 38.625 -238.84375 C 38.53125 -242.007812 38.390625 -244.546875 38.203125 -246.453125 C 40.878906 -246.453125 44.421875 -246.40625 48.828125 -246.3125 C 53.234375 -246.21875 57.972656 -246.070312 63.046875 -245.875 C 68.117188 -245.6875 72.859375 -245.5 77.265625 -245.3125 C 81.671875 -245.125 85.117188 -244.929688 87.609375 -244.734375 C 87.421875 -242.628906 87.273438 -240.234375 87.171875 -237.546875 C 87.078125 -234.867188 87.03125 -232.476562 87.03125 -230.375 Z M 129.546875 -131.265625 C 125.140625 -134.710938 122.265625 -139.546875 120.921875 -145.765625 C 119.585938 -151.992188 118.921875 -161.238281 118.921875 -173.5 L 118.921875 -237.84375 C 118.921875 -240.71875 118.726562 -243.492188 118.34375 -246.171875 C 122.9375 -245.984375 128.34375 -245.695312 134.5625 -245.3125 C 140.789062 -244.925781 147.066406 -244.539062 153.390625 -244.15625 C 159.710938 -243.78125 165.265625 -243.398438 170.046875 -243.015625 C 169.671875 -241.484375 169.484375 -239.28125 169.484375 -236.40625 L 169.484375 -219.171875 C 180.015625 -221.273438 190.5 -223.570312 200.9375 -226.0625 C 211.375 -228.550781 220.613281 -231.085938 228.65625 -233.671875 C 236.695312 -236.265625 242.25 -238.515625 245.3125 -240.421875 L 278.34375 -204.515625 L 271.15625 -202.515625 C 268.09375 -201.742188 264.164062 -200.734375 259.375 -199.484375 C 254.59375 -198.242188 249.425781 -196.859375 243.875 -195.328125 C 250.570312 -192.078125 257.75 -188.628906 265.40625 -184.984375 C 273.070312 -181.347656 279.300781 -178.476562 284.09375 -176.375 C 282.363281 -164.113281 278.578125 -153.960938 272.734375 -145.921875 C 266.898438 -137.878906 257.898438 -131.941406 245.734375 -128.109375 C 233.578125 -124.285156 216.875 -122.375 195.625 -122.375 C 181.0625 -122.375 169.472656 -122.660156 160.859375 -123.234375 C 152.242188 -123.804688 145.585938 -124.757812 140.890625 -126.09375 C 136.203125 -127.4375 132.421875 -129.160156 129.546875 -131.265625 Z M 234.96875 -193.03125 C 224.4375 -190.539062 213.378906 -188.050781 201.796875 -185.5625 C 190.210938 -183.070312 179.441406 -180.96875 169.484375 -179.25 L 169.484375 -172.34375 C 169.484375 -169.851562 171.109375 -168.128906 174.359375 -167.171875 C 176.460938 -166.984375 179.191406 -166.789062 182.546875 -166.59375 C 185.898438 -166.40625 191.882812 -166.3125 200.5 -166.3125 C 208.738281 -166.3125 214.914062 -166.742188 219.03125 -167.609375 C 223.144531 -168.472656 226.445312 -170.4375 228.9375 -173.5 C 230.46875 -175.414062 231.757812 -177.859375 232.8125 -180.828125 C 233.863281 -183.796875 234.582031 -187.863281 234.96875 -193.03125 Z M 269.734375 -115.1875 C 269.535156 -112.695312 269.4375 -110.207031 269.4375 -107.71875 C 269.4375 -105.226562 269.4375 -102.644531 269.4375 -99.96875 L 269.4375 12.0625 L 269.734375 27.28125 L 222.328125 27.28125 L 222.328125 17.234375 L 168.328125 17.234375 L 168.328125 27.28125 L 120.9375 27.28125 C 121.125 25.175781 121.21875 22.785156 121.21875 20.109375 C 121.21875 17.429688 121.21875 14.75 121.21875 12.0625 L 121.21875 -99.96875 C 121.21875 -102.644531 121.21875 -105.367188 121.21875 -108.140625 C 121.21875 -110.921875 121.125 -113.269531 120.9375 -115.1875 Z M 222.328125 -78.421875 L 168.328125 -78.421875 L 168.328125 -66.921875 L 222.328125 -66.921875 Z M 168.328125 -19.53125 L 222.328125 -19.53125 L 222.328125 -32.453125 L 168.328125 -32.453125 Z M 168.328125 -19.53125 "/></g></g></g></svg>