<svg xmlns="http://www.w3.org/2000/svg" xmlns:xlink="http://www.w3.org/1999/xlink" width="500" zoomAndPan="magnify" viewBox="0 0 375 374.999991" height="500" preserveAspectRatio="xMidYMid meet" version="1.0"><defs><clipPath id="0a37561b16"><path d="M 6.847656 6.847656 L 368.347656 6.847656 L 368.347656 368.347656 L 6.847656 368.347656 Z M 6.847656 6.847656 " clip-rule="nonzero"/></clipPath><clipPath id="e83e1d0f62"><path d="M 64 100 L 285 100 L 285 324.683594 L 64 324.683594 Z M 64 100 " clip-rule="nonzero"/></clipPath><clipPath id="edb630fe96"><path d="M 279 139 L 359.039062 139 L 359.039062 284 L 279 284 Z M 279 139 " clip-rule="nonzero"/></clipPath><clipPath id="1f5a87e08f"><path d="M 62.039062 32.933594 L 288 32.933594 L 288 108 L 62.039062 108 Z M 62.039062 32.933594 " clip-rule="nonzero"/></clipPath></defs><g clip-path="url(#0a37561b16)"><path fill="#8c52ff" d="M 368.148438 187.5 C 368.148438 287.257812 287.265625 368.148438 187.5 368.148438 C 87.730469 368.148438 6.847656 287.257812 6.847656 187.5 C 6.847656 87.730469 87.730469 6.847656 187.5 6.847656 C 287.265625 6.847656 368.148438 87.730469 368.148438 187.5 Z M 368.148438 187.5 " fill-opacity="1" fill-rule="nonzero"/></g><path fill="#8c52ff" d="M 103.476562 235.03125 C 103.476562 222.566406 104.019531 210.640625 105.101562 199 C 95.617188 208.753906 85.332031 218.5 74.21875 227.171875 C 72.324219 228.535156 70.15625 229.347656 67.988281 229.347656 C 64.734375 229.347656 61.484375 227.722656 59.316406 224.472656 C 57.972656 222.5625 57.429688 220.40625 57.429688 218.511719 C 57.429688 215.257812 59.054688 212.007812 61.765625 210.109375 C 88.851562 191.421875 121.632812 156.746094 134.636719 130.734375 C 135.449219 129.378906 135.722656 128.296875 135.722656 127.210938 C 135.722656 125.3125 134.097656 124.230469 130.84375 124.230469 L 72.0625 124.230469 C 67.183594 124.230469 64.476562 120.4375 64.476562 115.027344 C 64.476562 109.609375 67.183594 105.542969 72.0625 105.542969 L 103.214844 105.542969 L 103.214844 67.074219 C 103.214844 62.195312 107.550781 59.488281 113.511719 59.488281 C 119.746094 59.488281 124.078125 62.195312 124.078125 67.074219 L 124.078125 105.542969 L 141.683594 105.542969 C 152.25 105.542969 159.015625 111.503906 159.015625 120.707031 C 159.015625 124.230469 157.933594 128.296875 156.035156 132.628906 C 149.261719 145.910156 138.703125 161.34375 127.863281 174.621094 C 140.859375 187.898438 152.785156 197.113281 162.265625 203.335938 C 165.789062 205.503906 167.414062 208.210938 167.414062 211.472656 C 167.414062 213.632812 166.601562 215.527344 165.25 217.695312 C 163.351562 220.675781 160.371094 222.042969 157.660156 222.042969 C 155.765625 222.042969 153.597656 221.492188 151.96875 220.144531 C 142.214844 212.828125 132.46875 203.34375 122.171875 192.246094 C 123.257812 205.792969 123.800781 216.625 123.800781 229.628906 L 123.800781 303.855469 C 123.800781 308.726562 119.734375 311.445312 113.5 311.445312 C 107.539062 311.445312 103.476562 308.464844 103.476562 303.855469 Z M 219.152344 181.125 C 218.078125 244.253906 199.371094 283.253906 155.765625 307.640625 C 153.597656 308.996094 151.429688 309.808594 149.53125 309.808594 C 146.28125 309.808594 143.027344 308.183594 140.859375 304.660156 C 139.503906 302.761719 138.964844 300.59375 138.964844 298.425781 C 138.964844 295.175781 140.589844 292.464844 143.839844 290.308594 C 182.582031 268.640625 198.296875 238.832031 199.371094 181.136719 L 191.25 181.136719 C 174.992188 181.136719 167.949219 174.902344 167.949219 159.738281 L 167.949219 95.246094 C 167.949219 79.800781 174.992188 73.296875 191.25 73.296875 L 276.859375 73.296875 C 292.847656 73.296875 300.152344 79.800781 300.152344 95.246094 L 300.152344 159.71875 C 300.152344 174.894531 292.847656 181.113281 276.859375 181.113281 L 261.964844 181.113281 L 261.964844 279.449219 C 261.964844 285.683594 264.125 286.765625 277.140625 286.765625 C 288.511719 286.765625 292.304688 284.878906 294.203125 278.917969 C 295.828125 272.402344 296.914062 259.679688 297.183594 248.847656 C 297.183594 243.972656 300.707031 240.992188 305.84375 240.992188 L 306.65625 240.992188 C 312.617188 241.261719 315.871094 243.972656 315.871094 249.121094 L 315.871094 249.671875 C 315.597656 266.191406 313.703125 281.90625 309.378906 291.933594 C 307.75 295.726562 305.03125 298.707031 301.519531 300.875 C 296.371094 303.855469 287.699219 305.742188 276.058594 305.742188 L 271.449219 305.742188 C 246.800781 305.484375 241.925781 299.78125 241.925781 285.972656 L 241.925781 181.125 Z M 271.710938 162.429688 C 276.871094 162.429688 279.851562 160.53125 279.851562 154.570312 L 279.851562 100.394531 C 279.851562 94.164062 276.871094 92.816406 271.710938 92.816406 L 196.410156 92.816406 C 190.992188 92.816406 188.28125 94.171875 188.28125 100.394531 L 188.28125 154.578125 C 188.28125 160.542969 190.992188 162.4375 196.410156 162.4375 L 271.710938 162.4375 Z M 271.710938 162.429688 " fill-opacity="1" fill-rule="nonzero"/><g clip-path="url(#e83e1d0f62)"><path fill="#ffffff" d="M 284.546875 305.621094 C 284.546875 316.066406 276.078125 324.53125 265.636719 324.53125 L 83.722656 324.53125 C 73.28125 324.53125 64.8125 316.066406 64.8125 305.621094 L 64.8125 119.738281 C 64.8125 109.292969 73.28125 100.824219 83.722656 100.824219 L 265.636719 100.824219 C 276.078125 100.824219 284.546875 109.292969 284.546875 119.738281 Z M 284.546875 305.621094 " fill-opacity="1" fill-rule="nonzero"/></g><g clip-path="url(#edb630fe96)"><path fill="#ffffff" d="M 311.160156 283.609375 L 279.070312 283.609375 L 279.070312 254.492188 L 311.160156 254.492188 C 321.535156 254.492188 329.976562 246.054688 329.976562 235.679688 L 329.976562 187.761719 C 329.976562 177.382812 321.535156 168.945312 311.160156 168.945312 L 282.921875 168.945312 L 282.921875 139.832031 L 311.160156 139.832031 C 337.585938 139.832031 359.089844 161.332031 359.089844 187.761719 L 359.089844 235.679688 C 359.089844 262.105469 337.589844 283.609375 311.160156 283.609375 Z M 311.160156 283.609375 " fill-opacity="1" fill-rule="nonzero"/></g><path fill="#fbc520" d="M 86.234375 105.84375 L 264.011719 105.84375 L 264.011719 302.945312 L 86.234375 302.945312 Z M 86.234375 105.84375 " fill-opacity="1" fill-rule="nonzero"/><g clip-path="url(#1f5a87e08f)"><path fill="#ffffff" d="M 256.179688 65.277344 C 256.082031 65.277344 255.988281 65.277344 255.894531 65.277344 C 249.054688 52.710938 235 44.511719 219.640625 44.511719 C 215.027344 44.511719 210.527344 45.230469 206.210938 46.648438 C 198.53125 37.992188 187.148438 32.933594 174.90625 32.933594 C 162.453125 32.933594 150.964844 38.121094 143.292969 47 C 138.671875 45.363281 133.734375 44.511719 128.761719 44.511719 C 111.566406 44.511719 96.480469 54.472656 90.667969 69.195312 C 74.679688 70.71875 62.164062 83.285156 62.164062 98.527344 C 62.164062 98.53125 62.164062 98.53125 62.164062 98.53125 C 62.164062 103.726562 66.375 107.9375 71.570312 107.9375 L 273.976562 107.9375 C 287.539062 107.9375 288 98.738281 288 94.8125 C 288 78.523438 273.722656 65.277344 256.179688 65.277344 Z M 256.179688 65.277344 " fill-opacity="1" fill-rule="nonzero"/></g><path fill="#fbc520" d="M 118.371094 108.410156 C 118.371094 115.609375 112.53125 121.445312 105.332031 121.445312 C 98.136719 121.445312 92.300781 115.609375 92.300781 108.410156 C 92.300781 101.214844 98.132812 95.375 105.332031 95.375 C 112.53125 95.375 118.371094 101.214844 118.371094 108.410156 Z M 118.371094 108.410156 " fill-opacity="1" fill-rule="nonzero"/><path fill="#ffffff" d="M 105.332031 123.070312 C 97.25 123.070312 90.675781 116.492188 90.675781 108.410156 C 90.675781 100.328125 97.25 93.75 105.332031 93.75 C 113.417969 93.75 119.996094 100.328125 119.996094 108.410156 C 119.996094 116.492188 113.417969 123.070312 105.332031 123.070312 Z M 105.332031 97 C 99.039062 97 93.925781 102.117188 93.925781 108.410156 C 93.925781 114.703125 99.039062 119.820312 105.332031 119.820312 C 111.621094 119.820312 116.738281 114.703125 116.738281 108.410156 C 116.738281 102.117188 111.621094 97 105.332031 97 Z M 105.332031 97 " fill-opacity="1" fill-rule="nonzero"/><path fill="#fbc520" d="M 135.792969 108.410156 C 135.792969 113.222656 131.890625 117.125 127.078125 117.125 C 122.265625 117.125 118.371094 113.222656 118.371094 108.410156 C 118.371094 103.597656 122.265625 99.695312 127.078125 99.695312 C 131.890625 99.695312 135.792969 103.597656 135.792969 108.410156 Z M 135.792969 108.410156 " fill-opacity="1" fill-rule="nonzero"/><path fill="#ffffff" d="M 127.078125 118.210938 C 121.671875 118.210938 117.277344 113.8125 117.277344 108.410156 C 117.277344 103.003906 121.671875 98.609375 127.078125 98.609375 C 132.484375 98.609375 136.878906 103.003906 136.878906 108.410156 C 136.878906 113.8125 132.484375 118.210938 127.078125 118.210938 Z M 127.078125 100.789062 C 122.878906 100.789062 119.449219 104.203125 119.449219 108.410156 C 119.449219 112.617188 122.878906 116.039062 127.078125 116.039062 C 131.285156 116.039062 134.707031 112.617188 134.707031 108.410156 C 134.707031 104.203125 131.285156 100.789062 127.078125 100.789062 Z M 127.078125 100.789062 " fill-opacity="1" fill-rule="nonzero"/><path fill="#fbc520" d="M 199.210938 108.410156 C 199.210938 116.367188 192.761719 122.816406 184.804688 122.816406 C 176.84375 122.816406 170.402344 116.367188 170.402344 108.410156 C 170.402344 100.457031 176.84375 94.007812 184.804688 94.007812 C 192.761719 94.007812 199.210938 100.457031 199.210938 108.410156 Z M 199.210938 108.410156 " fill-opacity="1" fill-rule="nonzero"/><path fill="#ffffff" d="M 184.804688 124.613281 C 175.871094 124.613281 168.601562 117.339844 168.601562 108.410156 C 168.601562 99.476562 175.871094 92.207031 184.804688 92.207031 C 193.734375 92.207031 201.007812 99.476562 201.007812 108.410156 C 201.007812 117.339844 193.734375 124.613281 184.804688 124.613281 Z M 184.804688 95.804688 C 177.855469 95.804688 172.191406 101.460938 172.191406 108.410156 C 172.191406 115.363281 177.855469 121.015625 184.804688 121.015625 C 191.757812 121.015625 197.410156 115.367188 197.410156 108.410156 C 197.410156 101.460938 191.757812 95.804688 184.804688 95.804688 Z M 184.804688 95.804688 " fill-opacity="1" fill-rule="nonzero"/><path fill="#fbc520" d="M 214.785156 113.632812 C 214.785156 117.933594 211.292969 121.421875 207 121.421875 C 202.695312 121.421875 199.210938 117.933594 199.210938 113.632812 C 199.210938 109.332031 202.695312 105.84375 207 105.84375 C 211.292969 105.84375 214.785156 109.332031 214.785156 113.632812 Z M 214.785156 113.632812 " fill-opacity="1" fill-rule="nonzero"/><path fill="#ffffff" d="M 207 122.390625 C 202.167969 122.390625 198.234375 118.464844 198.234375 113.632812 C 198.234375 108.800781 202.167969 104.871094 207 104.871094 C 211.824219 104.871094 215.753906 108.800781 215.753906 113.632812 C 215.753906 118.464844 211.824219 122.390625 207 122.390625 Z M 207 106.820312 C 203.238281 106.820312 200.179688 109.878906 200.179688 113.632812 C 200.179688 117.390625 203.238281 120.445312 207 120.445312 C 210.753906 120.445312 213.8125 117.390625 213.8125 113.632812 C 213.8125 109.878906 210.753906 106.820312 207 106.820312 Z M 207 106.820312 " fill-opacity="1" fill-rule="nonzero"/><path fill="#fbc520" d="M 170.402344 108.410156 C 170.402344 112.710938 166.910156 116.199219 162.609375 116.199219 C 158.3125 116.199219 154.824219 112.710938 154.824219 108.410156 C 154.824219 104.109375 158.3125 100.621094 162.609375 100.621094 C 166.910156 100.621094 170.402344 104.109375 170.402344 108.410156 Z M 170.402344 108.410156 " fill-opacity="1" fill-rule="nonzero"/><path fill="#ffffff" d="M 162.609375 117.171875 C 157.785156 117.171875 153.851562 113.238281 153.851562 108.410156 C 153.851562 103.578125 157.785156 99.648438 162.609375 99.648438 C 167.4375 99.648438 171.371094 103.578125 171.371094 108.410156 C 171.371094 113.238281 167.4375 117.171875 162.609375 117.171875 Z M 162.609375 101.597656 C 158.851562 101.597656 155.792969 104.652344 155.792969 108.410156 C 155.792969 112.171875 158.851562 115.222656 162.609375 115.222656 C 166.371094 115.222656 169.425781 112.171875 169.425781 108.410156 C 169.425781 104.652344 166.371094 101.597656 162.609375 101.597656 Z M 162.609375 101.597656 " fill-opacity="1" fill-rule="nonzero"/><path fill="#fbc520" d="M 154.824219 108.410156 C 154.824219 111.519531 152.308594 114.039062 149.199219 114.039062 C 146.09375 114.039062 143.574219 111.519531 143.574219 108.410156 C 143.574219 105.304688 146.09375 102.789062 149.199219 102.789062 C 152.308594 102.789062 154.824219 105.304688 154.824219 108.410156 Z M 154.824219 108.410156 " fill-opacity="1" fill-rule="nonzero"/><path fill="#ffffff" d="M 149.199219 114.738281 C 145.710938 114.738281 142.871094 111.902344 142.871094 108.410156 C 142.871094 104.925781 145.710938 102.082031 149.199219 102.082031 C 152.691406 102.082031 155.523438 104.925781 155.523438 108.410156 C 155.523438 111.902344 152.691406 114.738281 149.199219 114.738281 Z M 149.199219 103.484375 C 146.488281 103.484375 144.273438 105.699219 144.273438 108.410156 C 144.273438 111.128906 146.488281 113.332031 149.199219 113.332031 C 151.914062 113.332031 154.121094 111.128906 154.121094 108.410156 C 154.121094 105.699219 151.914062 103.484375 149.199219 103.484375 Z M 149.199219 103.484375 " fill-opacity="1" fill-rule="nonzero"/><path fill="#fbc520" d="M 143.574219 108.410156 C 143.574219 110.675781 141.738281 112.507812 139.480469 112.507812 C 137.222656 112.507812 135.382812 110.675781 135.382812 108.410156 C 135.382812 106.148438 137.222656 104.3125 139.480469 104.3125 C 141.738281 104.3125 143.574219 106.148438 143.574219 108.410156 Z M 143.574219 108.410156 " fill-opacity="1" fill-rule="nonzero"/><path fill="#ffffff" d="M 139.480469 113.015625 C 136.9375 113.015625 134.871094 110.953125 134.871094 108.410156 C 134.871094 105.867188 136.9375 103.804688 139.480469 103.804688 C 142.019531 103.804688 144.085938 105.867188 144.085938 108.410156 C 144.085938 110.953125 142.019531 113.015625 139.480469 113.015625 Z M 139.480469 104.824219 C 137.503906 104.824219 135.894531 106.433594 135.894531 108.410156 C 135.894531 110.386719 137.503906 111.996094 139.480469 111.996094 C 141.457031 111.996094 143.058594 110.386719 143.058594 108.410156 C 143.058594 106.433594 141.457031 104.824219 139.480469 104.824219 Z M 139.480469 104.824219 " fill-opacity="1" fill-rule="nonzero"/><path fill="#fbc520" d="M 91.859375 108.410156 C 91.859375 111.519531 89.335938 114.039062 86.234375 114.039062 C 83.128906 114.039062 80.609375 111.519531 80.609375 108.410156 C 80.609375 105.304688 83.128906 102.789062 86.234375 102.789062 C 89.335938 102.789062 91.859375 105.304688 91.859375 108.410156 Z M 91.859375 108.410156 " fill-opacity="1" fill-rule="nonzero"/><path fill="#ffffff" d="M 86.234375 114.738281 C 82.746094 114.738281 79.90625 111.902344 79.90625 108.410156 C 79.90625 104.925781 82.746094 102.082031 86.234375 102.082031 C 89.726562 102.082031 92.558594 104.925781 92.558594 108.410156 C 92.558594 111.902344 89.726562 114.738281 86.234375 114.738281 Z M 86.234375 103.484375 C 83.523438 103.484375 81.316406 105.699219 81.316406 108.410156 C 81.316406 111.128906 83.523438 113.332031 86.234375 113.332031 C 88.949219 113.332031 91.15625 111.128906 91.15625 108.410156 C 91.15625 105.699219 88.949219 103.484375 86.234375 103.484375 Z M 86.234375 103.484375 " fill-opacity="1" fill-rule="nonzero"/><path fill="#fbc520" d="M 249.820312 108.410156 C 249.820312 110.921875 247.785156 112.953125 245.273438 112.953125 C 242.761719 112.953125 240.730469 110.921875 240.730469 108.410156 C 240.730469 105.902344 242.761719 103.867188 245.273438 103.867188 C 247.785156 103.867188 249.820312 105.90625 249.820312 108.410156 Z M 249.820312 108.410156 " fill-opacity="1" fill-rule="nonzero"/><path fill="#ffffff" d="M 245.273438 113.523438 C 242.457031 113.523438 240.164062 111.226562 240.164062 108.410156 C 240.164062 105.59375 242.457031 103.300781 245.273438 103.300781 C 248.089844 103.300781 250.386719 105.59375 250.386719 108.410156 C 250.386719 111.226562 248.089844 113.523438 245.273438 113.523438 Z M 245.273438 104.433594 C 243.078125 104.433594 241.292969 106.214844 241.292969 108.410156 C 241.292969 110.605469 243.078125 112.390625 245.273438 112.390625 C 247.46875 112.390625 249.25 110.605469 249.25 108.410156 C 249.25 106.214844 247.46875 104.433594 245.273438 104.433594 Z M 245.273438 104.433594 " fill-opacity="1" fill-rule="nonzero"/><path fill="#fbc520" d="M 268.847656 108.410156 C 268.847656 113.421875 264.785156 117.484375 259.777344 117.484375 C 254.761719 117.484375 250.703125 113.421875 250.703125 108.410156 C 250.703125 103.402344 254.761719 99.34375 259.777344 99.34375 C 264.789062 99.34375 268.847656 103.402344 268.847656 108.410156 Z M 268.847656 108.410156 " fill-opacity="1" fill-rule="nonzero"/><path fill="#ffffff" d="M 259.777344 118.613281 C 254.148438 118.613281 249.570312 114.039062 249.570312 108.410156 C 249.570312 102.78125 254.148438 98.210938 259.777344 98.210938 C 265.402344 98.210938 269.980469 102.78125 269.980469 108.410156 C 269.980469 114.039062 265.402344 118.613281 259.777344 118.613281 Z M 259.777344 100.46875 C 255.398438 100.46875 251.835938 104.035156 251.835938 108.410156 C 251.835938 112.789062 255.398438 116.351562 259.777344 116.351562 C 264.152344 116.351562 267.714844 112.789062 267.714844 108.410156 C 267.714844 104.03125 264.152344 100.46875 259.777344 100.46875 Z M 259.777344 100.46875 " fill-opacity="1" fill-rule="nonzero"/><path fill="#fbc520" d="M 239.453125 107.941406 C 239.453125 114.75 233.929688 120.269531 227.117188 120.269531 C 220.308594 120.269531 214.785156 114.75 214.785156 107.941406 C 214.785156 101.125 220.308594 95.605469 227.117188 95.605469 C 233.929688 95.605469 239.453125 101.128906 239.453125 107.941406 Z M 239.453125 107.941406 " fill-opacity="1" fill-rule="nonzero"/><path fill="#ffffff" d="M 227.117188 121.8125 C 219.46875 121.8125 213.25 115.585938 213.25 107.941406 C 213.25 100.289062 219.46875 94.066406 227.117188 94.066406 C 234.769531 94.066406 240.996094 100.289062 240.996094 107.941406 C 240.996094 115.585938 234.769531 121.8125 227.117188 121.8125 Z M 227.117188 97.140625 C 221.164062 97.140625 216.324219 101.984375 216.324219 107.941406 C 216.324219 113.890625 221.164062 118.734375 227.117188 118.734375 C 233.074219 118.734375 237.914062 113.890625 237.914062 107.941406 C 237.914062 101.984375 233.074219 97.140625 227.117188 97.140625 Z M 227.117188 97.140625 " fill-opacity="1" fill-rule="nonzero"/><path fill="#ffffff" d="M 239.453125 150.953125 C 239.453125 157.765625 233.929688 163.289062 227.117188 163.289062 C 220.308594 163.289062 214.785156 157.765625 214.785156 150.953125 C 214.785156 144.144531 220.308594 138.617188 227.117188 138.617188 C 233.929688 138.617188 239.453125 144.144531 239.453125 150.953125 Z M 239.453125 150.953125 " fill-opacity="1" fill-rule="nonzero"/><path fill="#ffffff" d="M 125.007812 175.625 C 125.007812 176.246094 124.945312 176.863281 124.824219 177.476562 C 124.703125 178.085938 124.523438 178.679688 124.285156 179.257812 C 124.046875 179.832031 123.753906 180.378906 123.410156 180.898438 C 123.0625 181.414062 122.667969 181.894531 122.226562 182.335938 C 121.789062 182.777344 121.308594 183.167969 120.789062 183.515625 C 120.273438 183.859375 119.726562 184.152344 119.148438 184.390625 C 118.574219 184.628906 117.980469 184.808594 117.371094 184.933594 C 116.757812 185.054688 116.140625 185.113281 115.519531 185.113281 C 114.894531 185.113281 114.277344 185.054688 113.667969 184.933594 C 113.054688 184.808594 112.460938 184.628906 111.886719 184.390625 C 111.3125 184.152344 110.761719 183.859375 110.246094 183.515625 C 109.726562 183.167969 109.25 182.777344 108.808594 182.335938 C 108.367188 181.894531 107.972656 181.414062 107.628906 180.898438 C 107.28125 180.378906 106.988281 179.832031 106.75 179.257812 C 106.511719 178.679688 106.332031 178.085938 106.210938 177.476562 C 106.089844 176.863281 106.027344 176.246094 106.027344 175.625 C 106.027344 175 106.089844 174.382812 106.210938 173.773438 C 106.332031 173.160156 106.511719 172.570312 106.75 171.992188 C 106.988281 171.417969 107.28125 170.871094 107.628906 170.351562 C 107.972656 169.832031 108.367188 169.355469 108.808594 168.914062 C 109.25 168.472656 109.726562 168.078125 110.246094 167.734375 C 110.761719 167.386719 111.3125 167.09375 111.886719 166.855469 C 112.460938 166.617188 113.054688 166.4375 113.667969 166.316406 C 114.277344 166.195312 114.894531 166.132812 115.519531 166.132812 C 116.140625 166.132812 116.757812 166.195312 117.371094 166.316406 C 117.980469 166.4375 118.574219 166.617188 119.148438 166.855469 C 119.726562 167.09375 120.273438 167.386719 120.789062 167.734375 C 121.308594 168.078125 121.789062 168.472656 122.226562 168.914062 C 122.667969 169.355469 123.0625 169.832031 123.410156 170.351562 C 123.753906 170.871094 124.046875 171.417969 124.285156 171.992188 C 124.523438 172.570312 124.703125 173.160156 124.824219 173.773438 C 124.945312 174.382812 125.007812 175 125.007812 175.625 Z M 125.007812 175.625 " fill-opacity="1" fill-rule="nonzero"/><path fill="#ffffff" d="M 171.011719 148.289062 C 171.011719 156.574219 164.292969 163.289062 156.011719 163.289062 C 147.726562 163.289062 141.007812 156.574219 141.007812 148.289062 C 141.007812 140 147.726562 133.289062 156.011719 133.289062 C 164.292969 133.289062 171.011719 140 171.011719 148.289062 Z M 171.011719 148.289062 " fill-opacity="1" fill-rule="nonzero"/><path fill="#ffffff" d="M 202.625 194.589844 C 202.625 201.164062 197.292969 206.5 190.71875 206.5 C 184.144531 206.5 178.8125 201.164062 178.8125 194.589844 C 178.8125 188.019531 184.144531 182.683594 190.71875 182.683594 C 197.292969 182.683594 202.625 188.019531 202.625 194.589844 Z M 202.625 194.589844 " fill-opacity="1" fill-rule="nonzero"/><path fill="#ffffff" d="M 157.421875 222.375 C 157.421875 226.195312 154.320312 229.292969 150.496094 229.292969 C 146.675781 229.292969 143.574219 226.195312 143.574219 222.375 C 143.574219 218.554688 146.675781 215.449219 150.496094 215.449219 C 154.320312 215.449219 157.421875 218.554688 157.421875 222.375 Z M 157.421875 222.375 " fill-opacity="1" fill-rule="nonzero"/><path fill="#ffffff" d="M 240.730469 214.089844 C 240.730469 217.238281 238.179688 219.785156 235.03125 219.785156 C 231.894531 219.785156 229.339844 217.238281 229.339844 214.089844 C 229.339844 210.945312 231.894531 208.394531 235.03125 208.394531 C 238.179688 208.394531 240.730469 210.945312 240.730469 214.089844 Z M 240.730469 214.089844 " fill-opacity="1" fill-rule="nonzero"/><path fill="#ffffff" d="M 206.894531 243.710938 C 206.894531 246.070312 204.980469 247.976562 202.625 247.976562 C 200.261719 247.976562 198.355469 246.070312 198.355469 243.710938 C 198.355469 241.355469 200.261719 239.441406 202.625 239.441406 C 204.980469 239.441406 206.894531 241.355469 206.894531 243.710938 Z M 206.894531 243.710938 " fill-opacity="1" fill-rule="nonzero"/><path fill="#ffffff" d="M 119.789062 280.566406 C 119.789062 282.925781 117.878906 284.839844 115.519531 284.839844 C 113.160156 284.839844 111.25 282.925781 111.25 280.566406 C 111.25 278.207031 113.160156 276.300781 115.519531 276.300781 C 117.878906 276.300781 119.789062 278.207031 119.789062 280.566406 Z M 119.789062 280.566406 " fill-opacity="1" fill-rule="nonzero"/><path fill="#ffffff" d="M 234.480469 268.167969 C 234.480469 269.875 233.097656 271.265625 231.390625 271.265625 C 229.679688 271.265625 228.289062 269.875 228.289062 268.167969 C 228.289062 266.460938 229.679688 265.074219 231.390625 265.074219 C 233.097656 265.074219 234.480469 266.460938 234.480469 268.167969 Z M 234.480469 268.167969 " fill-opacity="1" fill-rule="nonzero"/></svg>